<svg width="227" height="50" viewBox="0 0 227 50" fill="none" xmlns="http://www.w3.org/2000/svg">
<g clip-path="url(#clip0_7645_158)">
<path d="M113.691 22.2491C113.817 22.3191 114.643 23.3132 114.643 23.3132L116.323 21.9831V29.0399H118.213V19.8828H116.631L113.691 22.2491Z" fill="white"/>
<path d="M26.6983 21.703C19.8655 16.8304 9.49024 19.7008 9.49024 19.7008L10.5964 7.50529H28.7986V0.854492H3.79156L2.01335 24.4333L5.49977 26.5336C5.49977 26.5336 14.2508 24.1113 19.4734 26.3936C24.6961 28.6758 24.5281 33.7864 24.276 35.4946C24.024 37.2029 23.4639 42.2155 15.931 43.0836C7.75404 44.0357 0.949219 40.0872 0.949219 40.0872V47.13C0.949219 47.13 4.32362 49.7624 14.9929 49.7624C25.6622 49.7624 30.3948 43.0836 31.5709 38.813C32.747 34.5285 33.5311 26.5756 26.6983 21.703Z" fill="#87BF17"/>
<path d="M65.0074 12.7415C61.941 -0.588111 49.7875 -4.01894e-05 49.7875 -4.01894e-05C49.7875 -4.01894e-05 37.6341 -0.588111 34.5677 12.7415C31.4313 26.4071 32.1034 49.7479 49.7875 49.7479C67.4717 49.7479 68.1437 26.4071 65.0074 12.7415ZM58.2586 32.3298C57.0404 43.9092 49.8015 43.3352 49.8015 43.3352C49.8015 43.3352 42.5487 43.9092 41.3445 32.3298C40.0704 20.0924 40.5604 6.48274 49.8015 6.48274C59.0427 6.48274 59.5327 20.0924 58.2586 32.3298Z" fill="#87BF17"/>
<path d="M98.3738 2.74495V1.17676H89.8748V2.74495H93.3472V12.1821H94.9014V2.74495H98.3738Z" fill="white"/>
<path d="M143.39 0.518555H141.822V12.182H143.39V0.518555Z" fill="white"/>
<path d="M101.356 3.68295C101.356 3.68295 97.7431 3.26289 97.6591 8.45752C97.6451 9.87169 98.4432 12.392 101.762 12.392C101.762 12.392 103.554 12.336 104.688 11.7619V10.3757C104.688 10.3757 103.932 11.1038 101.762 11.1038C101.762 11.1038 99.4093 11.2158 99.4093 8.45752H105.094C105.108 7.00134 105.542 3.68295 101.356 3.68295ZM103.386 7.12736H99.4513C99.4513 7.12736 99.4513 4.9991 101.496 4.9991C103.54 4.9991 103.386 7.12736 103.386 7.12736Z" fill="white"/>
<path d="M112.067 5.531L112.669 4.20084C112.669 4.20084 110.541 3.31873 108.763 3.99081C106.985 4.64889 106.327 6.03506 106.327 8.0373C106.327 10.0395 106.845 12.4058 110.065 12.4058C110.065 12.4058 111.647 12.4338 112.571 11.7897L112.613 10.2776C112.613 10.2776 111.857 11.0477 110.135 11.0477C108.413 11.0477 108.091 8.98941 108.091 8.13531C108.091 7.28121 108.385 3.94881 112.067 5.531Z" fill="white"/>
<path d="M118.312 3.69694C116.982 3.69694 115.988 4.56504 115.525 5.0691V0.518555H113.957V12.182H115.525V7.09935C115.862 6.24524 116.562 5.0831 117.78 5.0831C119.6 5.0831 119.6 6.41326 119.6 7.28137V12.182H121.168V6.65129C121.168 5.22312 120.566 3.69694 118.312 3.69694Z" fill="white"/>
<path d="M127.777 3.69629C126.446 3.69629 125.452 4.56439 124.99 5.06845L124.71 3.85031H123.436V12.1813H125.004V7.0987C125.34 6.2446 126.04 5.08246 127.258 5.08246C129.079 5.08246 129.079 6.41261 129.079 7.28072V12.1813H130.647V6.65064C130.633 5.22247 130.031 3.69629 127.777 3.69629Z" fill="white"/>
<path d="M136.151 3.68262C133.995 3.68262 132.245 5.58685 132.245 7.92513C132.245 10.2634 133.253 12.1676 136.151 12.1676C139.05 12.1676 140.058 10.2634 140.058 7.92513C140.058 5.58685 138.308 3.68262 136.151 3.68262ZM136.151 10.7115C134.947 10.7115 133.967 9.53532 133.967 8.00914C133.967 6.48295 134.527 5.25081 136.151 5.25081C137.762 5.25081 138.336 6.48295 138.336 8.00914C138.336 9.53532 137.355 10.7115 136.151 10.7115Z" fill="white"/>
<path d="M149.144 3.68262C146.987 3.68262 145.237 5.58685 145.237 7.92513C145.237 10.2634 146.245 12.1676 149.144 12.1676C152.042 12.1676 153.05 10.2634 153.05 7.92513C153.05 5.58685 151.3 3.68262 149.144 3.68262ZM149.144 10.7115C147.939 10.7115 146.959 9.53532 146.959 8.00914C146.959 6.48295 147.519 5.25081 149.144 5.25081C150.754 5.25081 151.328 6.48295 151.328 8.00914C151.328 9.53532 150.348 10.7115 149.144 10.7115Z" fill="white"/>
<path d="M160.569 4.88661L161.759 4.69059L161.619 3.89249C161.619 3.89249 158.832 3.92049 158.076 3.82248C157.32 3.72447 155.794 3.73847 154.87 4.8166C153.96 5.89473 153.89 8.149 155.598 8.9471C155.598 8.9471 155.864 9.03111 155.36 9.29714C154.856 9.56317 154.716 9.94121 154.73 10.4033C154.744 10.9633 155.388 11.2154 155.346 11.4814C155.276 11.8734 153.61 11.8594 153.61 13.5957C153.61 15.3319 154.758 15.9479 157.278 15.9479C159.785 15.9479 161.633 14.9118 161.633 13.0496C161.633 11.1734 159.477 10.8653 158.258 10.8653C157.04 10.8653 155.976 10.8793 155.976 10.1092C155.976 9.33914 156.76 9.36715 157.362 9.36715C157.964 9.36715 160.653 9.10111 160.653 6.79084C160.653 6.79084 160.709 5.95074 160.289 5.32066C160.261 5.32066 160.065 4.99862 160.569 4.88661ZM157.586 12.1255C158.959 12.1255 160.079 12.3355 160.079 13.0776C160.079 14.2397 158.959 14.8278 157.586 14.8278C155.458 14.8278 155.094 14.2257 155.094 13.4696C155.094 12.7135 156.2 12.1255 157.586 12.1255ZM157.446 8.34502C156.564 8.34502 155.85 7.53293 155.85 6.52481C155.85 5.51668 156.564 4.70459 157.446 4.70459C158.328 4.70459 159.043 5.51668 159.043 6.52481C159.043 7.53293 158.328 8.34502 157.446 8.34502Z" fill="white"/>
<path d="M168.857 3.68262C168.311 5.26481 167.135 8.61121 166.449 10.5574C165.763 8.59721 164.601 5.25081 164.041 3.68262H162.263C162.837 5.34882 165.455 11.8176 165.735 12.5177C165.301 13.5118 164.657 14.4359 164.083 14.4359H162.655V15.9341H164.083C165.903 15.9341 166.953 13.5818 167.331 12.5597C167.499 12.0836 169.852 5.37682 170.44 3.68262H168.857Z" fill="white"/>
<path d="M216.309 5.65763C215.665 5.19557 214.853 4.97154 213.859 4.97154C213.509 4.97154 213.173 4.99955 212.921 5.04155L213.061 3.51537H216.953V1.16309H210.765L210.33 6.87577L211.493 7.57586L211.689 7.51985C211.703 7.51985 212.487 7.29582 213.313 7.29582C213.733 7.29582 214.069 7.35183 214.335 7.46384C215.133 7.81388 215.119 8.58398 215.077 8.89201V8.92002C215.021 9.28406 214.923 9.97014 213.733 10.0962C213.579 10.1102 213.411 10.1242 213.243 10.1242C211.913 10.1242 210.863 9.52209 210.849 9.52209L210.148 9.11604V11.6503L210.33 11.7904C210.414 11.8604 211.241 12.4484 213.593 12.4484C215.973 12.4484 217.219 11.0203 217.555 9.78812C217.751 8.96202 218.073 6.93178 216.309 5.65763Z" fill="#87BF17"/>
<path d="M226.392 4.04684C225.706 1.07848 223.059 0.980469 222.765 0.980469C222.751 0.980469 222.695 0.980469 222.667 0.980469C222.373 0.980469 219.727 1.06448 219.041 4.04684C218.551 6.2031 218.467 9.35347 219.895 11.1457C220.581 12.0138 221.533 12.4478 222.723 12.4478C223.913 12.4478 224.851 12.0138 225.552 11.1457C226.952 9.35347 226.882 6.2031 226.392 4.04684ZM224.039 8.24734C223.843 10.0536 222.947 10.1516 222.751 10.1516H222.723H222.681C222.499 10.1516 221.589 10.0536 221.393 8.24734C221.085 5.26498 221.505 4.08884 221.925 3.64079C222.135 3.41676 222.387 3.30475 222.723 3.30475C223.059 3.30475 223.311 3.41676 223.521 3.64079C223.913 4.08884 224.347 5.26498 224.039 8.24734Z" fill="#87BF17"/>
<path d="M175.117 1.12012V3.52841V5.64266V8.03695V12.1954H178.001V8.03695H181.291V5.64266H178.001V3.52841H181.641V1.12012H178.001H175.117Z" fill="#87BF17"/>
<path d="M186.64 3.58398C184.316 3.58398 183.084 4.39608 183.084 4.39608L183.952 6.2163C185.002 5.53022 185.954 5.62823 185.954 5.62823C187.606 5.62823 187.438 6.91638 187.438 6.91638C187.242 6.91638 186.724 6.91638 185.464 6.91638C182.72 6.91638 182.216 8.76461 182.216 9.81473C182.216 10.8649 182.818 12.377 184.876 12.377C186.934 12.377 187.662 11.0609 187.662 11.0609L188.334 12.195H190.281C190.281 12.195 190.281 8.45657 190.281 6.65035C190.281 4.84414 188.964 3.58398 186.64 3.58398ZM187.438 9.08664C187.438 9.77273 186.78 10.3328 186.192 10.3328C186.192 10.3328 186.192 10.3328 186.178 10.3328C185.59 10.3328 185.058 10.0528 185.142 9.24066C185.226 8.42857 186.262 8.42857 186.808 8.42857H186.822C187.396 8.42857 187.396 8.42857 187.396 8.42857C187.424 8.42857 187.424 8.42857 187.424 8.42857C187.424 8.42857 187.438 8.66659 187.438 9.08664Z" fill="#87BF17"/>
<path d="M196.483 7.0704C195.867 6.80437 194.593 6.35632 194.593 5.83826C194.593 5.32019 196.455 5.53022 197.631 6.10429L198.472 4.35408C198.472 4.35408 197.281 3.58398 195.265 3.58398C193.249 3.58398 191.821 4.5081 191.821 6.13229C191.821 7.75649 192.815 8.26055 193.921 8.65259C195.027 9.05864 197.015 9.95475 195.111 10.3188C193.907 10.5428 191.821 9.67472 191.821 9.67472V11.957C191.821 11.957 192.969 12.377 194.775 12.377C196.581 12.377 198.542 11.859 198.542 9.82873C198.542 7.79849 197.099 7.32243 196.483 7.0704Z" fill="#87BF17"/>
<path d="M203.275 1.97559H201.441C201.441 1.97559 201.175 3.90782 199.34 4.74792V5.84005H200.418V10.3626C200.418 10.3626 200.348 12.3788 202.645 12.3788C204.941 12.3788 205.515 11.9168 205.515 11.9168V9.76052C205.515 9.76052 204.871 10.0966 204.339 10.0966C203.807 10.0966 203.275 9.92854 203.275 9.29846C203.275 9.01843 203.275 7.45024 203.275 5.82605H205.501V3.7258H203.275C203.275 2.73168 203.275 1.97559 203.275 1.97559Z" fill="#87BF17"/>
<path d="M124.779 19.8404C121.937 20.3165 121.797 23.9709 121.797 24.699C121.797 24.8811 121.839 29.1796 125.914 29.1796C126.474 29.1796 127.524 29.1096 128.294 28.6475C128.434 28.5635 128.476 28.3955 128.392 28.2555C128.308 28.1154 128.14 28.0734 128 28.1574C127.342 28.5495 126.418 28.6055 125.914 28.6055C122.399 28.6055 122.357 24.853 122.357 24.685C122.357 24.293 122.427 20.7926 124.877 20.3865C127.216 19.9945 128.056 20.7086 128.084 20.7226C128.196 20.8206 128.378 20.8206 128.476 20.7086C128.588 20.5965 128.574 20.4145 128.462 20.3165C128.42 20.2745 127.454 19.3924 124.779 19.8404Z" fill="white"/>
<path d="M135.477 28.6049H131.025V24.5304H135.155C135.309 24.5304 135.435 24.4044 135.435 24.2504C135.435 24.0964 135.309 23.9704 135.155 23.9704H131.025V20.2739H135.477C135.631 20.2739 135.757 20.1479 135.757 19.9939C135.757 19.8399 135.631 19.7139 135.477 19.7139H130.745C130.591 19.7139 130.465 19.8399 130.465 19.9939V28.885C130.465 29.039 130.591 29.165 130.745 29.165H135.477C135.631 29.165 135.757 29.039 135.757 28.885C135.757 28.731 135.645 28.6049 135.477 28.6049Z" fill="white"/>
<path d="M92.2672 39.6523H89.6909V44.777V49.9016H92.2672C97.4899 49.9016 98.1059 46.7232 98.1059 44.777C98.1059 42.8167 97.8259 39.6523 92.2672 39.6523ZM92.3232 47.6333C92.3232 44.777 92.3232 44.777 92.3232 44.777C92.3232 44.777 92.3232 44.777 92.3232 41.7806C93.2613 41.7806 95.4316 41.4306 95.4316 44.777C95.4316 48.1234 93.2613 47.6333 92.3232 47.6333Z" fill="white"/>
<path d="M102.77 42.2012C99.4513 42.2012 99.0312 44.7495 99.0312 45.9676C99.0312 47.1998 99.1433 50.0001 102.616 50.0001C102.616 50.0001 104.492 50.0141 105.654 49.412L105.206 47.8298C105.206 47.8298 104.576 48.2219 102.98 48.2219C101.51 48.2219 101.482 46.7517 101.482 46.7517H106.2C106.2 46.7517 106.2 45.6176 106.2 45.2395C106.2 44.8615 106.088 42.2012 102.77 42.2012ZM103.96 45.1415H101.524C101.524 45.1415 101.412 43.7694 102.742 43.7694C104.058 43.7694 103.96 45.1415 103.96 45.1415Z" fill="white"/>
<path d="M138.935 42.2012C135.617 42.2012 135.197 44.7495 135.197 45.9676C135.197 47.1998 135.309 50.0001 138.781 50.0001C138.781 50.0001 140.657 50.0141 141.819 49.412L141.371 47.8298C141.371 47.8298 140.741 48.2219 139.145 48.2219C137.675 48.2219 137.647 46.7517 137.647 46.7517H142.365C142.365 46.7517 142.365 45.6176 142.365 45.2395C142.365 44.8615 142.253 42.2012 138.935 42.2012ZM140.125 45.1415H137.689C137.689 45.1415 137.577 43.7694 138.907 43.7694C140.223 43.7694 140.125 45.1415 140.125 45.1415Z" fill="white"/>
<path d="M109.812 39.5127H107.264V49.9019H109.812V39.5127Z" fill="white"/>
<path d="M121.895 39.5127H119.346V41.2629H121.895V39.5127Z" fill="white"/>
<path d="M121.895 42.3125H119.346V49.9014H121.895V42.3125Z" fill="white"/>
<path d="M114.587 42.2012C110.764 42.2012 110.89 45.9396 110.89 45.9396C110.89 50.2661 114.587 49.9021 114.587 49.9021C114.587 49.9021 118.283 50.2521 118.283 45.9396C118.283 45.9396 118.409 42.2012 114.587 42.2012ZM114.587 48.2219C114.083 48.2219 113.34 47.7318 113.34 46.0516C113.34 44.1754 114.223 43.9374 114.587 43.9374C114.937 43.9374 115.833 44.1754 115.833 46.0516C115.833 47.7318 115.091 48.2219 114.587 48.2219Z" fill="white"/>
<path d="M126.46 47.1162C126.46 46.8081 126.46 45.548 126.46 44.1618H128.154V42.2016H126.46C126.46 40.8854 126.46 39.8213 126.46 39.8213L123.94 40.3253C123.94 40.3253 123.94 41.1094 123.94 42.1876H122.988V44.1478H123.94C123.94 45.464 123.94 46.8221 123.94 47.6622C123.94 49.7205 125.158 49.9025 126.292 49.9025C127.412 49.9025 128.35 49.5525 128.35 49.5525V47.7182C128.154 47.8583 127.748 48.0683 127.286 48.0683C126.81 48.0543 126.46 47.8723 126.46 47.1162Z" fill="white"/>
<path d="M132.479 47.1162C132.479 46.8081 132.479 45.548 132.479 44.1618H134.173V42.2016H132.479C132.479 40.8854 132.479 39.8213 132.479 39.8213L129.958 40.3253C129.958 40.3253 129.958 41.1094 129.958 42.1876H129.006V44.1478H129.958C129.958 45.464 129.958 46.8221 129.958 47.6622C129.958 49.7205 131.177 49.9025 132.311 49.9025C133.431 49.9025 134.369 49.5525 134.369 49.5525V47.7182C134.173 47.8583 133.767 48.0683 133.305 48.0683C132.829 48.0543 132.479 47.8723 132.479 47.1162Z" fill="white"/>
<path d="M144.466 47.1436C143.682 47.1436 143.038 47.7876 143.038 48.5717C143.038 49.3558 143.682 49.9999 144.466 49.9999C145.251 49.9999 145.895 49.3558 145.895 48.5717C145.895 47.7876 145.265 47.1436 144.466 47.1436Z" fill="#87BF17"/>
<path d="M95.686 24.3071C96.0921 23.831 96.9602 22.1368 95.938 20.7647C94.9019 19.3925 92.1436 19.2245 90.2954 21.0027C90.2533 21.0447 91.2895 22.1788 91.2895 22.1788C91.2895 22.1788 92.4656 21.2547 93.4737 21.2547C94.4819 21.2547 94.9299 22.7109 94.2858 23.495C93.6418 24.2791 90.2253 27.6955 90.2253 27.6955V29.0117H96.6241V27.5135H92.5216C92.5216 27.5275 95.28 24.7972 95.686 24.3071Z" fill="white"/>
<path d="M101.566 19.7139C100.222 19.7139 98.3594 20.3999 98.3594 24.5024C98.3594 28.6049 100.166 29.025 101.566 29.025C102.98 29.025 104.772 28.6049 104.772 24.5024C104.772 20.3999 102.91 19.7139 101.566 19.7139ZM101.566 27.6948C100.138 27.6948 100.208 24.5024 100.208 24.5024C100.208 20.988 101.566 21.2541 101.566 21.2541C101.566 21.2541 102.924 20.988 102.924 24.5024C102.924 24.5024 102.994 27.6948 101.566 27.6948Z" fill="white"/>
<path d="M111.478 24.3071C111.884 23.831 112.752 22.1368 111.73 20.7647C110.694 19.3925 107.936 19.2245 106.087 21.0027C106.045 21.0447 107.081 22.1788 107.081 22.1788C107.081 22.1788 108.258 21.2547 109.266 21.2547C110.274 21.2547 110.722 22.7109 110.078 23.495C109.434 24.2791 106.017 27.6955 106.017 27.6955V29.0117H112.416V27.5135H108.286C108.314 27.5275 111.072 24.7972 111.478 24.3071Z" fill="white"/>
<path d="M157.11 19.7139H154.547V29.081H157.11V19.7139Z" fill="#6B7BD0"/>
<path d="M179.458 19.7139V21.8841V23.3123V25.4826V26.9107V29.081H182.02H184.848V26.9107H182.02V25.4826H184.47V23.3123H182.02V21.8841H184.848V19.7139H182.02H179.458Z" fill="#6B7BD0"/>
<path d="M165.049 26.4487L161.885 19.7139H160.695H159.463H158.566V29.081H160.695V22.3462L163.873 29.081H165.049H166.295H167.191V19.7139H165.049V26.4487Z" fill="#6B7BD0"/>
<path d="M175.509 26.4487L172.344 19.7139H171.154H169.922H169.012V29.081H171.154V22.3462L174.319 29.081H175.509H176.741H177.651V19.7139H175.509V26.4487Z" fill="#6B7BD0"/>
<path d="M149.633 25.9446L147.869 19.7139H145.587L143.837 25.9446L142.548 19.7139H139.888L142.38 29.081H142.941H144.481H145.321L146.735 23.9004L148.135 29.081H148.975H150.515H151.076L153.568 19.7139H150.908L149.633 25.9446Z" fill="#6B7BD0"/>
<path d="M191.176 25.2589C191.89 24.8249 192.464 24.0688 192.464 22.7806C192.464 19.4342 188.53 19.7282 188.53 19.7282H185.968V29.0954H188.53V25.875C188.53 25.875 188.712 25.889 188.978 25.875L190.952 29.0954H193.514L191.176 25.2589ZM188.488 24.0548V22.8786V21.5345C188.488 21.5345 190.168 21.4925 190.168 22.8366C190.168 23.7887 189.482 24.0548 188.488 24.0548Z" fill="#6B7BD0"/>
<path d="M78.2519 0H77.6919V50H78.2519V0Z" fill="white"/>
</g>
<defs>
<clipPath id="clip0_7645_158">
<rect width="225.763" height="50" fill="white" transform="translate(0.949219)"/>
</clipPath>
</defs>
</svg>
