<svg width="226" height="50" viewBox="0 0 226 50" fill="none" xmlns="http://www.w3.org/2000/svg">
<path d="M25.721 21.6941C18.8978 16.8251 8.52771 19.7012 8.52771 19.7012L9.63091 7.5066H27.8226V0.854492H2.84073L1.06459 24.4267L4.54517 26.5245C4.54517 26.5245 13.288 24.1065 18.5061 26.3809C23.7298 28.6553 23.5533 33.7783 23.305 35.4841C23.0568 37.1899 22.4997 42.208 14.9759 43.0747C6.80121 44.0242 0 40.0771 0 40.0771V47.1156C0 47.1156 3.37578 49.7489 14.0327 49.7489C24.6896 49.7489 29.4167 43.0636 30.5917 38.7964C31.761 34.5291 32.5443 26.5631 25.721 21.6941Z" fill="#87BF17"/>
<path d="M64.0092 12.747C60.9478 -0.584818 48.8016 0.00586695 48.8016 0.00586695C48.8016 0.00586695 36.6554 -0.584818 33.5941 12.747C30.4555 26.4045 31.1284 49.7504 48.8016 49.7504C66.4749 49.7504 67.1423 26.4045 64.0092 12.747ZM57.2577 32.3279C56.0497 43.9043 48.8016 43.3246 48.8016 43.3246C48.8016 43.3246 41.5536 43.8988 40.3456 32.3279C39.0659 20.0947 39.5624 6.48684 48.8016 6.48684C58.0409 6.48684 58.5374 20.0947 57.2577 32.3279Z" fill="#87BF17"/>
<path d="M97.3142 2.74163V1.17383H88.8362V2.74163H92.2947V12.176H93.8557V2.74163H97.3142Z" fill="white"/>
<path d="M142.291 0.512695H140.73V12.1773H142.291V0.512695Z" fill="white"/>
<path d="M100.3 3.67512C100.3 3.67512 96.6928 3.25557 96.6101 8.44477C96.588 9.86904 97.3933 12.3919 100.714 12.3919C100.714 12.3919 102.501 12.3367 103.637 11.757V10.3714C103.637 10.3714 102.882 11.0946 100.714 11.0946C100.714 11.0946 98.3697 11.2105 98.3697 8.44477H104.057C104.051 6.99842 104.476 3.67512 100.3 3.67512ZM102.336 7.12538H98.4028C98.4028 7.12538 98.4028 4.9945 100.438 4.9945C102.474 4.9945 102.336 7.12538 102.336 7.12538Z" fill="white"/>
<path d="M111.006 5.52293L111.596 4.19803C111.596 4.19803 109.467 3.32028 107.685 3.98273C105.909 4.64518 105.247 6.03081 105.247 8.0292C105.247 10.0276 105.766 12.3903 108.976 12.3903C108.976 12.3903 110.565 12.4179 111.486 11.7776L111.536 10.2705C111.536 10.2705 110.78 11.0433 109.059 11.0433C107.338 11.0433 107.023 8.97871 107.023 8.12857C107.029 7.27842 107.327 3.94961 111.006 5.52293Z" fill="white"/>
<path d="M117.25 3.68694C115.921 3.68694 114.928 4.55917 114.464 5.056V0.512695H112.903V12.1773H114.464V7.09304C114.806 6.23185 115.496 5.07808 116.715 5.07808C118.541 5.07808 118.541 6.41403 118.541 7.28073V12.1773H120.102V6.64588C120.102 5.22162 119.5 3.68694 117.25 3.68694Z" fill="white"/>
<path d="M126.703 3.68652C125.374 3.68652 124.381 4.55875 123.918 5.05559L123.631 3.8411H122.351V12.1714H123.912V7.0871C124.254 6.22592 124.944 5.07215 126.163 5.07215C127.989 5.07215 127.989 6.40809 127.989 7.2748V12.1714H129.55V6.64547C129.561 5.2212 128.954 3.68652 126.703 3.68652Z" fill="white"/>
<path d="M135.065 3.68652C132.913 3.68652 131.165 5.58555 131.165 7.93173C131.165 10.2779 132.174 12.1769 135.065 12.1769C137.96 12.1769 138.964 10.2779 138.964 7.93173C138.964 5.58555 137.216 3.68652 135.065 3.68652ZM135.065 10.714C133.862 10.714 132.891 9.53817 132.891 8.00902C132.891 6.47986 133.454 5.24328 135.065 5.24328C136.675 5.24328 137.238 6.47986 137.238 8.00902C137.238 9.53817 136.262 10.714 135.065 10.714Z" fill="white"/>
<path d="M148.043 3.68652C145.892 3.68652 144.144 5.58555 144.144 7.93173C144.144 10.2779 145.153 12.1769 148.043 12.1769C150.934 12.1769 151.943 10.2779 151.943 7.93173C151.943 5.58555 150.195 3.68652 148.043 3.68652ZM148.043 10.714C146.841 10.714 145.87 9.53817 145.87 8.00902C145.87 6.47986 146.433 5.24328 148.043 5.24328C149.654 5.24328 150.217 6.47986 150.217 8.00902C150.217 9.53817 149.246 10.714 148.043 10.714Z" fill="white"/>
<path d="M159.454 4.88318L160.64 4.68444L160.496 3.8895C160.496 3.8895 157.711 3.91158 156.955 3.81773C156.199 3.72389 154.671 3.73493 153.756 4.81141C152.84 5.88789 152.774 8.14023 154.478 8.94621C154.478 8.94621 154.749 9.02902 154.241 9.29952C153.734 9.57002 153.59 9.94541 153.607 10.4091C153.623 10.9667 154.263 11.2261 154.219 11.4911C154.147 11.8886 152.493 11.872 152.493 13.5999C152.493 15.3278 153.64 15.9461 156.15 15.9461C158.66 15.9461 160.496 14.9138 160.496 13.0424C160.496 11.1709 158.34 10.8618 157.121 10.8618C155.902 10.8618 154.848 10.8728 154.848 10.1055C154.848 9.33264 155.631 9.36024 156.233 9.36024C156.834 9.36024 159.515 9.08974 159.515 6.78772C159.515 6.78772 159.575 5.94862 159.145 5.31929C159.145 5.32481 158.957 4.99911 159.454 4.88318ZM156.475 12.1149C157.854 12.1149 158.968 12.3192 158.968 13.07C158.968 14.2237 157.854 14.8255 156.475 14.8255C154.352 14.8255 153.982 14.2182 153.982 13.473C153.982 12.7222 155.096 12.1149 156.475 12.1149ZM156.343 8.33896C155.466 8.33896 154.754 7.52746 154.754 6.52826C154.754 5.52907 155.466 4.71756 156.343 4.71756C157.22 4.71756 157.931 5.52907 157.931 6.52826C157.931 7.52746 157.22 8.33896 156.343 8.33896Z" fill="white"/>
<path d="M167.74 3.68521C167.189 5.26405 166.019 8.60942 165.335 10.5637C164.651 8.60942 163.482 5.26405 162.93 3.68521H161.154C161.733 5.34685 164.348 11.8168 164.618 12.5234C164.183 13.5171 163.543 14.4335 162.975 14.4335H161.551V15.935H162.975C164.789 15.935 165.848 13.5778 166.218 12.562C166.395 12.0873 168.733 5.37998 169.324 3.67969H167.74V3.68521Z" fill="white"/>
<path d="M215.155 5.65573C214.515 5.19754 213.693 4.96568 212.711 4.96568C212.358 4.96568 212.033 4.9988 211.768 5.03193L211.906 3.50277H215.795V1.16211H209.606L209.176 6.87023L210.334 7.5658L210.527 7.5106C210.533 7.5106 211.332 7.28978 212.154 7.28978C212.574 7.28978 212.916 7.34498 213.169 7.45539C213.975 7.80318 213.953 8.57052 213.908 8.88518L213.903 8.91278C213.853 9.27713 213.754 9.95614 212.551 10.0942C212.391 10.1107 212.226 10.1218 212.066 10.1218C210.742 10.1218 209.683 9.52555 209.672 9.52003L208.966 9.11152V11.6454L209.148 11.7889C209.236 11.8552 210.058 12.4459 212.403 12.4459C214.78 12.4459 216.021 11.0105 216.357 9.78501C216.589 8.96247 216.92 6.91991 215.155 5.65573Z" fill="#87BF17"/>
<path d="M225.225 4.04464C224.541 1.06913 221.899 0.986328 221.601 0.986328C221.579 0.986328 221.524 0.986328 221.507 0.986328C221.21 0.986328 218.567 1.07465 217.883 4.04464C217.387 6.20313 217.315 9.35529 218.738 11.1439C219.428 12.0106 220.377 12.4467 221.563 12.4467C222.748 12.4467 223.697 12.0106 224.387 11.1439C225.799 9.35529 225.722 6.19761 225.225 4.04464ZM222.875 8.24016C222.688 10.0453 221.778 10.1447 221.585 10.1502L221.557 10.1447L221.518 10.1502C221.336 10.1502 220.421 10.0564 220.233 8.24016C219.919 5.25914 220.349 4.08881 220.757 3.63061C220.967 3.39875 221.215 3.29386 221.552 3.29386C221.888 3.29386 222.142 3.39875 222.346 3.63061C222.76 4.08881 223.19 5.25914 222.875 8.24016Z" fill="#87BF17"/>
<path d="M174.001 1.12305V3.51891V5.63875V8.03461V12.197H176.88V8.03461H180.168V5.63875H176.88V3.51891H180.521V1.12305H176.88H174.001Z" fill="#87BF17"/>
<path d="M185.523 3.58105C183.201 3.58105 181.971 4.39808 181.971 4.39808L182.837 6.20878C183.879 5.51872 184.839 5.61809 184.839 5.61809C186.483 5.61809 186.317 6.90987 186.317 6.90987C186.124 6.90987 185.606 6.90987 184.354 6.90987C181.607 6.90987 181.11 8.75921 181.11 9.81361C181.11 10.868 181.711 12.3751 183.774 12.3751C185.837 12.3751 186.56 11.0612 186.56 11.0612L187.233 12.1984H189.174C189.174 12.1984 189.174 8.46663 189.174 6.66145C189.174 4.85627 187.845 3.58105 185.523 3.58105ZM186.317 9.0794C186.317 9.76393 185.661 10.3215 185.071 10.3215H185.065C185.065 10.3215 185.065 10.3215 185.06 10.3215C184.475 10.3215 183.94 10.0399 184.028 9.22845C184.116 8.41142 185.142 8.41142 185.699 8.41142C185.705 8.41142 185.71 8.41142 185.721 8.41142C186.295 8.41142 186.295 8.41142 186.295 8.41142C186.323 8.41142 186.323 8.41142 186.323 8.41142C186.323 8.41142 186.317 8.67088 186.317 9.0794Z" fill="#87BF17"/>
<path d="M195.347 7.06606C194.729 6.8066 193.466 6.35392 193.466 5.835C193.466 5.31608 195.325 5.52586 196.5 6.1055L197.338 4.35001C197.338 4.35001 196.152 3.57715 194.128 3.57715C192.103 3.57715 190.68 4.49906 190.68 6.12758C190.68 7.75059 191.673 8.24743 192.776 8.65042C193.879 9.05341 195.865 9.95324 193.962 10.3176C192.765 10.5439 190.68 9.66618 190.68 9.66618V11.9406C190.68 11.9406 191.828 12.3657 193.631 12.3657C195.429 12.3657 197.399 11.8467 197.399 9.81523C197.399 7.78371 195.964 7.33104 195.347 7.06606Z" fill="#87BF17"/>
<path d="M202.132 1.97559H200.296C200.296 1.97559 200.031 3.91325 198.199 4.74684V5.83988H199.275V10.3556C199.275 10.3556 199.203 12.3761 201.498 12.3761C203.787 12.3761 204.366 11.9123 204.366 11.9123V9.75938C204.366 9.75938 203.726 10.0961 203.191 10.0961C202.656 10.0961 202.132 9.92499 202.132 9.30671C202.132 9.01964 202.132 7.45184 202.132 5.83988H204.361V3.74212H202.132C202.132 2.72636 202.132 1.97559 202.132 1.97559Z" fill="#87BF17"/>
<path d="M123.735 19.8418C120.894 20.3165 120.751 23.9655 120.751 24.6942C120.751 24.8764 120.795 29.1713 124.871 29.1713C125.428 29.1713 126.482 29.0995 127.249 28.6413C127.381 28.5585 127.425 28.3874 127.342 28.2549C127.26 28.1224 127.089 28.0782 126.956 28.161C126.305 28.553 125.368 28.6137 124.871 28.6137C121.357 28.6137 121.313 24.8598 121.313 24.6997C121.313 24.3023 121.385 20.8079 123.829 20.4049C126.167 20.0184 127.006 20.7195 127.028 20.7361C127.138 20.841 127.315 20.8355 127.425 20.725C127.53 20.6146 127.524 20.4325 127.414 20.3276C127.37 20.2779 126.405 19.3946 123.735 19.8418Z" fill="white"/>
<path d="M134.416 28.6063H129.971V24.5322H134.097C134.251 24.5322 134.378 24.4053 134.378 24.2507C134.378 24.0961 134.251 23.9691 134.097 23.9691H129.971V20.276H134.416C134.571 20.276 134.698 20.149 134.698 19.9944C134.698 19.8399 134.571 19.7129 134.416 19.7129H129.689C129.535 19.7129 129.408 19.8399 129.408 19.9944V28.8878C129.408 29.0424 129.535 29.1694 129.689 29.1694H134.416C134.571 29.1694 134.698 29.0424 134.698 28.8878C134.698 28.7333 134.571 28.6063 134.416 28.6063Z" fill="white"/>
<path d="M91.2464 39.6543H88.6704V44.7773V49.9002H91.2464C96.47 49.9002 97.0713 46.7204 97.0713 44.7773C97.0713 42.8175 96.79 39.6543 91.2464 39.6543ZM91.296 47.6368C91.296 44.7717 91.296 44.7717 91.296 44.7717C91.296 44.7717 91.296 44.7717 91.296 41.7741C92.2393 41.7741 94.407 41.4264 94.407 44.7717C94.407 48.1171 92.2393 47.6368 91.296 47.6368Z" fill="white"/>
<path d="M101.73 42.1934C98.4094 42.1934 98.0012 44.7383 98.0012 45.9638C98.0012 47.1893 98.106 49.9992 101.581 49.9992C101.581 49.9992 103.457 50.0158 104.609 49.4141L104.163 47.8297C104.163 47.8297 103.534 48.2217 101.94 48.2217C100.467 48.2217 100.445 46.7477 100.445 46.7477H105.15C105.15 46.7477 105.15 45.6105 105.15 45.2351C105.155 44.8597 105.051 42.1934 101.73 42.1934ZM102.922 45.1357H100.489C100.489 45.1357 100.384 43.7556 101.708 43.7556C103.026 43.7612 102.922 45.1357 102.922 45.1357Z" fill="white"/>
<path d="M137.863 42.1934C134.542 42.1934 134.134 44.7383 134.134 45.9638C134.134 47.1893 134.239 49.9992 137.714 49.9992C137.714 49.9992 139.589 50.0158 140.742 49.4141L140.295 47.8297C140.295 47.8297 139.667 48.2217 138.072 48.2217C136.6 48.2217 136.578 46.7477 136.578 46.7477H141.283C141.283 46.7477 141.283 45.6105 141.283 45.2351C141.288 44.8597 141.183 42.1934 137.863 42.1934ZM139.049 45.1357H136.616C136.616 45.1357 136.511 43.7556 137.835 43.7556C139.159 43.7612 139.049 45.1357 139.049 45.1357Z" fill="white"/>
<path d="M108.757 39.5107H106.214V49.8947H108.757V39.5107Z" fill="white"/>
<path d="M120.842 39.5107H118.299V41.2662H120.842V39.5107Z" fill="white"/>
<path d="M120.842 42.3037H118.299V49.8888H120.842V42.3037Z" fill="white"/>
<path d="M113.543 42.1934C109.726 42.1934 109.847 45.9252 109.847 45.9252C109.847 50.2477 113.543 49.8888 113.543 49.8888C113.543 49.8888 117.239 50.2421 117.239 45.9252C117.233 45.9252 117.36 42.1934 113.543 42.1934ZM113.543 48.2217C113.047 48.2217 112.302 47.7303 112.302 46.0466C112.302 44.1752 113.19 43.9378 113.543 43.9378C113.896 43.9378 114.784 44.1752 114.784 46.0466C114.784 47.7303 114.04 48.2217 113.543 48.2217Z" fill="white"/>
<path d="M125.401 47.1073C125.401 46.7981 125.401 45.5395 125.401 44.1538H127.095V42.1941H125.401C125.401 40.8802 125.401 39.8203 125.401 39.8203L122.88 40.3282C122.88 40.3282 122.88 41.1121 122.88 42.1941H121.932V44.1538H122.88C122.88 45.4732 122.88 46.8312 122.88 47.6648C122.88 49.7295 124.099 49.9006 125.225 49.9006C126.35 49.9006 127.288 49.5473 127.288 49.5473V47.709C127.1 47.8525 126.681 48.0513 126.223 48.0513C125.754 48.0568 125.401 47.8636 125.401 47.1073Z" fill="white"/>
<path d="M131.417 47.1073C131.417 46.7981 131.417 45.5395 131.417 44.1538H133.11V42.1941H131.417C131.417 40.8802 131.417 39.8203 131.417 39.8203L128.896 40.3282C128.896 40.3282 128.896 41.1121 128.896 42.1941H127.947V44.1538H128.896C128.896 45.4732 128.896 46.8312 128.896 47.6648C128.896 49.7295 130.115 49.9006 131.24 49.9006C132.365 49.9006 133.303 49.5473 133.303 49.5473V47.709C133.115 47.8525 132.702 48.0513 132.238 48.0513C131.77 48.0568 131.417 47.8636 131.417 47.1073Z" fill="white"/>
<path d="M143.395 47.1299C142.606 47.1299 141.966 47.7703 141.966 48.5597C141.966 49.3491 142.606 49.9895 143.395 49.9895C144.183 49.9895 144.823 49.3491 144.823 48.5597C144.823 47.7703 144.183 47.1299 143.395 47.1299Z" fill="#87BF17"/>
<path d="M94.656 24.3064C95.0642 23.8261 95.9358 22.1369 94.9043 20.7678C93.8728 19.3987 91.1093 19.2276 89.2724 21.0107C89.2338 21.0493 90.2653 22.1921 90.2653 22.1921C90.2653 22.1921 91.4402 21.2702 92.4497 21.2702C93.4646 21.2702 93.9059 22.7275 93.266 23.5114C92.6262 24.2953 89.2173 27.707 89.2173 27.707V29.0208H95.6103V27.5248H91.4899C91.4954 27.5248 94.2479 24.7867 94.656 24.3064Z" fill="white"/>
<path d="M100.533 19.707C99.1924 19.707 97.3225 20.386 97.3225 24.4877C97.3225 28.5894 99.1207 29.0145 100.533 29.0145C101.945 29.0145 103.743 28.5894 103.743 24.4877C103.743 20.386 101.873 19.707 100.533 19.707ZM100.533 27.6896C99.1097 27.6896 99.1704 24.4988 99.1704 24.4988C99.1704 20.9767 100.533 21.2527 100.533 21.2527C100.533 21.2527 101.895 20.9822 101.895 24.4988C101.895 24.5043 101.956 27.6896 100.533 27.6896Z" fill="white"/>
<path d="M104.998 22.2426C105.13 22.3144 105.947 23.3081 105.947 23.3081L107.629 21.9721V29.0217H109.527V19.8799H107.944L104.998 22.2426Z" fill="white"/>
<path d="M114.165 19.8799C110.883 19.8799 111.12 22.9824 111.12 22.9824C111.12 24.9863 112.56 25.8861 113.663 25.8861C115.246 25.8861 115.787 24.8151 115.787 24.8151C115.787 27.1116 114.584 27.6637 113.426 27.6637C112.874 27.6637 111.633 27.6747 111.633 27.6747V29.0714H113.718C117.028 29.0714 117.304 24.4508 117.304 23.9098C117.304 23.3798 117.453 19.8799 114.165 19.8799ZM114.115 24.4784C113.338 24.4784 112.703 23.7552 112.703 22.8609C112.703 21.9666 113.338 21.2434 114.115 21.2434C114.893 21.2434 115.527 21.9666 115.527 22.8609C115.527 23.7552 114.893 24.4784 114.115 24.4784Z" fill="white"/>
<path d="M156.026 19.7139H153.461V29.0765H156.026V19.7139Z" fill="#29AA35"/>
<path d="M178.347 19.7139V21.8834V23.3132V25.4827V26.9125V29.0765H180.912H183.737V26.9125H180.912V25.4827H183.361V23.3132H180.912V21.8834H183.737V19.7139H180.912H178.347Z" fill="#29AA35"/>
<path d="M163.961 26.4488L160.795 19.7139H159.609H158.373H157.474V29.0765H159.609V22.3471L162.775 29.0765H163.961H165.196H166.095V19.7139H163.961V26.4488Z" fill="#29AA35"/>
<path d="M174.405 26.4488L171.239 19.7139H170.053H168.817H167.918V29.0765H170.053V22.3471L173.219 29.0765H174.405H175.64H176.539V19.7139H174.405V26.4488Z" fill="#29AA35"/>
<path d="M148.547 25.9464L146.793 19.7139H144.52L142.761 25.9464L141.476 19.7139H138.817L141.31 29.0765H141.873H143.406H144.25L145.657 23.9039L147.058 29.0765H147.902H149.435H149.998L152.491 19.7139H149.832L148.547 25.9464Z" fill="#29AA35"/>
<path d="M190.058 25.2489C190.77 24.8072 191.344 24.0565 191.344 22.7757C191.344 19.4248 187.416 19.7174 187.416 19.7174H184.851V29.08H187.416V25.8616C187.416 25.8616 187.593 25.8727 187.863 25.8616L189.838 29.08H192.403L190.058 25.2489ZM187.372 24.0565V22.8806V21.5336C187.372 21.5336 189.043 21.495 189.043 22.8309C189.049 23.7804 188.371 24.0565 187.372 24.0565Z" fill="#29AA35"/>
<path d="M77.2411 0H76.6785V49.9985H77.2411V0Z" fill="white"/>
</svg>
