<svg width="247" height="100" viewBox="0 0 247 100" fill="none" xmlns="http://www.w3.org/2000/svg">
<path d="M35.1257 40.4368C33.4014 42.0279 31.5064 43.3629 29.4978 44.4053H35.1257V40.4368ZM13.4856 16.8997H7.34596V41.7718C7.72495 42.1742 8.10394 42.5216 8.50187 42.8325C9.37354 43.5092 10.4347 44.0396 11.6664 44.4236H13.5045V16.8997H13.4856ZM38.3092 35.5172C41.1327 31.4024 42.6297 26.7205 42.6297 22.0022C42.6297 15.6013 39.901 10.0599 35.1257 6.56683V0.696289H28.9861V4.02476C20.2315 1.48269 9.96097 5.17692 4.14352 13.6627C-2.18558 22.8617 -1.08651 34.5297 6.22795 41.1683C0.315742 34.5662 -0.00639777 23.7213 6.0574 14.888C11.6096 6.80458 20.8758 2.81773 29.0051 4.2808V40.6562C31.298 39.0652 33.3824 37.0352 35.1447 34.6394V6.69485C37.7787 9.09062 39.6357 12.3277 40.4126 16.0585C40.7158 17.4667 40.8485 18.8932 40.8485 20.3562C40.8485 25.1478 39.2757 30.1039 36.2817 34.4382C30.3316 43.1069 20.0799 47.3315 11.5527 44.9906C20.6295 48.6116 31.9801 44.7528 38.3092 35.5172ZM20.7053 11.5047H14.5657V44.4053H20.7053V11.5047ZM27.906 6.10963H21.7854V44.0944C23.8888 43.5092 25.9732 42.5948 27.925 41.3695V6.10963H27.906Z" fill="white"/>
<path d="M186.305 31.6751C186.059 31.4374 185.718 31.2179 185.282 31.0168C184.846 30.8156 184.316 30.7242 183.728 30.7242C183.425 30.7242 183.141 30.7607 182.857 30.8156C182.572 30.8705 182.307 30.9619 182.061 31.0716C181.814 31.1996 181.587 31.3277 181.379 31.474C181.17 31.6203 181 31.7666 180.848 31.9129V31.0168H177.153V44.5318H180.848V37.2165C180.848 36.2289 181.019 35.4974 181.379 35.0036C181.739 34.5281 182.345 34.2904 183.217 34.2904C183.634 34.2904 184.013 34.3635 184.373 34.5281C184.733 34.6927 185.055 34.8939 185.339 35.1682L186.305 31.6751ZM170.824 40.5633C170.729 40.7279 170.577 40.8742 170.426 41.0205C170.255 41.1668 170.066 41.2948 169.857 41.4228C169.63 41.5325 169.384 41.624 169.137 41.6971C168.872 41.7703 168.588 41.8069 168.285 41.8069C167.887 41.8069 167.565 41.752 167.299 41.6606C167.034 41.5691 166.807 41.4228 166.636 41.2582C166.465 41.0936 166.352 40.9107 166.276 40.6913C166.2 40.4718 166.162 40.2524 166.162 40.0146C166.162 39.466 166.352 39.0453 166.712 38.7527C167.072 38.4601 167.602 38.3138 168.304 38.3138C168.626 38.3138 168.929 38.3321 169.175 38.3504C169.422 38.3687 169.649 38.4052 169.838 38.4601C170.047 38.515 170.217 38.5698 170.388 38.643C170.559 38.7161 170.71 38.7893 170.862 38.8807V40.5633H170.824ZM174.519 44.5135V35.4425C174.519 34.6744 174.386 33.9978 174.121 33.4125C173.856 32.8273 173.458 32.3335 172.965 31.9312C172.472 31.5288 171.866 31.2179 171.165 31.0168C170.464 30.8156 169.687 30.7059 168.834 30.7059C167.811 30.7059 166.901 30.8156 166.105 31.0168C165.31 31.2179 164.476 31.5837 163.585 32.0775L165.006 34.5464C165.726 34.1806 166.333 33.9429 166.844 33.8149C167.356 33.7051 168.019 33.6503 168.834 33.6503C169.478 33.6503 169.971 33.8149 170.312 34.1258C170.653 34.455 170.824 34.8573 170.824 35.3694V36.0278C170.54 35.8815 170.161 35.7534 169.744 35.6437C169.327 35.534 168.777 35.4791 168.133 35.4791C167.337 35.4791 166.598 35.5706 165.916 35.7534C165.234 35.9363 164.627 36.2289 164.116 36.5947C163.604 36.9605 163.206 37.436 162.903 38.0029C162.6 38.5698 162.467 39.2099 162.467 39.9597C162.467 40.7827 162.619 41.496 162.922 42.0995C163.225 42.703 163.623 43.1968 164.116 43.5991C164.608 44.0015 165.158 44.2941 165.783 44.477C166.409 44.6781 167.053 44.7696 167.697 44.7696C168.019 44.7696 168.322 44.7513 168.645 44.6781C168.948 44.6233 169.251 44.5318 169.535 44.4221C169.838 44.2941 170.085 44.1661 170.293 44.038C170.502 43.8917 170.691 43.7454 170.843 43.5808V44.477H174.519V44.5135ZM152.803 36.2289C152.841 35.8815 152.917 35.5706 153.03 35.2779C153.144 34.9853 153.296 34.7293 153.504 34.5098C153.694 34.2904 153.921 34.1258 154.205 33.9978C154.47 33.8697 154.774 33.8149 155.115 33.8149C155.532 33.8149 155.892 33.888 156.195 34.016C156.498 34.1624 156.744 34.3452 156.953 34.5647C157.161 34.8024 157.313 35.0585 157.427 35.3511C157.54 35.6437 157.597 35.9363 157.635 36.2472H152.803V36.2289ZM160.781 35.0402C160.515 34.1806 160.136 33.4308 159.625 32.7907C159.113 32.1506 158.507 31.6386 157.768 31.2728C157.029 30.907 156.214 30.7059 155.266 30.7059C154.376 30.7059 153.561 30.8887 152.803 31.2362C152.045 31.5837 151.382 32.0592 150.813 32.681C150.264 33.3028 149.809 34.0526 149.506 34.9122C149.184 35.7717 149.032 36.7227 149.032 37.7651C149.032 38.4967 149.108 39.1733 149.24 39.7769C149.373 40.3804 149.582 40.929 149.809 41.4228C150.055 41.9166 150.358 42.3555 150.7 42.7579C151.06 43.1602 151.458 43.5077 151.931 43.8003C152.386 44.1112 152.936 44.3489 153.542 44.5318C154.148 44.7147 154.849 44.8061 155.626 44.8061C156.1 44.8061 156.574 44.7513 157.048 44.6598C157.521 44.5684 157.976 44.4221 158.431 44.2392C158.867 44.0563 159.284 43.8186 159.663 43.5443C160.042 43.2699 160.383 42.959 160.648 42.6115L158.033 40.5084C157.9 40.6547 157.749 40.7827 157.578 40.8925C157.408 41.0022 157.218 41.1119 156.991 41.2034C156.763 41.2948 156.555 41.3497 156.328 41.3862C156.119 41.4228 155.873 41.4411 155.626 41.4411C155.285 41.4411 154.963 41.3862 154.622 41.2948C154.3 41.2034 153.997 41.057 153.731 40.8559C153.466 40.6547 153.239 40.3987 153.068 40.0695C152.898 39.7403 152.784 39.3562 152.746 38.899H161.122C161.141 38.771 161.16 38.6064 161.16 38.4235C161.179 38.2406 161.179 38.0212 161.179 37.7651C161.179 36.7959 161.046 35.8997 160.781 35.0402ZM146.625 26.4813L141.945 34.0343L137.283 26.4813H132.982L140.05 37.4542V44.5135H143.783V37.3811L150.851 26.4813H146.625ZM119.395 36.2289C119.433 35.8815 119.509 35.5706 119.623 35.2779C119.736 34.9853 119.888 34.7293 120.096 34.5098C120.286 34.2904 120.513 34.1258 120.797 33.9978C121.063 33.8697 121.366 33.8149 121.707 33.8149C122.124 33.8149 122.484 33.888 122.787 34.016C123.09 34.1624 123.337 34.3452 123.545 34.5647C123.754 34.8024 123.905 35.0585 124.019 35.3511C124.133 35.6437 124.189 35.9363 124.227 36.2472H119.395V36.2289ZM127.373 35.0402C127.108 34.1806 126.729 33.4308 126.217 32.7907C125.705 32.1506 125.099 31.6386 124.36 31.2728C123.64 30.907 122.806 30.7059 121.859 30.7059C120.968 30.7059 120.153 30.8887 119.395 31.2362C118.637 31.5837 117.974 32.0592 117.424 32.681C116.856 33.3028 116.42 34.0526 116.117 34.9122C115.795 35.7717 115.643 36.7227 115.643 37.7651C115.643 38.4967 115.719 39.1733 115.852 39.7769C115.984 40.3804 116.174 40.929 116.42 41.4228C116.666 41.9166 116.97 42.3555 117.311 42.7579C117.671 43.1602 118.069 43.5077 118.542 43.8003C118.997 44.1112 119.547 44.3489 120.153 44.5318C120.76 44.7147 121.461 44.8061 122.238 44.8061C122.711 44.8061 123.185 44.7513 123.659 44.6598C124.133 44.5684 124.587 44.4221 125.023 44.2392C125.459 44.0563 125.876 43.8186 126.255 43.5443C126.634 43.2699 126.975 42.959 127.24 42.6115L124.625 40.5084C124.493 40.6547 124.341 40.7827 124.17 40.8925C124 41.0022 123.81 41.1119 123.583 41.2034C123.356 41.2948 123.147 41.3497 122.92 41.3862C122.711 41.4228 122.465 41.4411 122.219 41.4411C121.878 41.4411 121.555 41.3862 121.214 41.2948C120.892 41.2034 120.589 41.057 120.324 40.8559C120.058 40.6547 119.831 40.3987 119.66 40.0695C119.49 39.7403 119.376 39.3562 119.338 38.899H127.714C127.733 38.771 127.752 38.6064 127.752 38.4235C127.771 38.2406 127.771 38.0212 127.771 37.7651C127.771 36.7959 127.638 35.8997 127.373 35.0402ZM113.71 44.5135V36.8873C113.71 35.9363 113.616 35.0768 113.407 34.3087C113.199 33.5406 112.896 32.9005 112.46 32.3701C112.043 31.8397 111.493 31.4191 110.849 31.1448C110.205 30.8522 109.428 30.7059 108.537 30.7059C108.158 30.7059 107.798 30.7424 107.495 30.7973C107.173 30.8522 106.87 30.9436 106.604 31.0533C106.32 31.1631 106.074 31.2911 105.827 31.4374C105.6 31.5837 105.411 31.73 105.259 31.8763V25.7314L101.583 27.5054V44.4952H105.259V37.1251C105.259 36.5398 105.316 36.046 105.43 35.662C105.543 35.2779 105.695 34.967 105.903 34.7293C106.112 34.4915 106.358 34.3269 106.661 34.2355C106.964 34.1441 107.287 34.0892 107.684 34.0892C108.556 34.0892 109.181 34.3452 109.523 34.8573C109.883 35.3694 110.053 36.1558 110.053 37.2348V44.5501H113.71V44.5135ZM99.8015 30.0475V26.4813H85.3432V30.0475H90.7058V44.5135H94.4389V30.0475H99.8015ZM77.6687 26.2069C77.3844 26.0972 77.0433 25.9875 76.6644 25.9143C76.2854 25.8412 75.8495 25.8046 75.3569 25.8046C74.7126 25.8046 74.1441 25.8778 73.6514 26.0058C73.1587 26.1338 72.7418 26.3532 72.4007 26.6276C72.0597 26.9202 71.8133 27.286 71.6238 27.7432C71.4533 28.2004 71.3585 28.7307 71.3585 29.3708V30.9985H69.672V34.3452H71.3585V44.5135H75.0347V34.3452H77.4223V30.9985H75.0347V29.8646C75.0347 29.7 75.0537 29.5537 75.0916 29.4074C75.1295 29.2611 75.1863 29.1514 75.2811 29.0599C75.3758 28.9685 75.5084 28.8953 75.6979 28.8587C75.8874 28.8039 76.1148 28.7856 76.3991 28.7856C76.6644 28.7856 76.9107 28.8039 77.1002 28.8587C77.3086 28.9136 77.4981 28.9685 77.6687 29.0599V26.2069ZM63.9304 37.9663C63.7219 38.6796 63.4187 39.2648 63.0587 39.7586C62.6797 40.2341 62.2249 40.5998 61.6944 40.8559C61.1638 41.1119 60.5574 41.2399 59.9131 41.2399C59.2688 41.2399 58.6624 41.1119 58.1129 40.8559C57.5634 40.5998 57.1086 40.2341 56.7107 39.7403C56.3127 39.2465 56.0095 38.643 55.8011 37.9297C55.5927 37.2165 55.479 36.4118 55.479 35.4974C55.479 34.583 55.5737 33.7783 55.7821 33.0651C55.9906 32.3518 56.2748 31.7666 56.6538 31.2728C57.0328 30.7973 57.4876 30.4315 58.0371 30.1755C58.5677 29.9195 59.1741 29.8097 59.8184 29.8097C60.4626 29.8097 61.069 29.9378 61.5996 30.1938C62.1491 30.4498 62.6039 30.8156 63.0019 31.3094C63.3998 31.8032 63.703 32.3884 63.9114 33.1016C64.1199 33.8149 64.2336 34.6196 64.2336 35.534C64.2525 36.4484 64.1388 37.2531 63.9304 37.9663ZM67.4929 31.5654C67.0949 30.4315 66.5264 29.444 65.8064 28.6576C65.0863 27.8712 64.2336 27.2494 63.2292 26.8287C62.2249 26.4081 61.1069 26.2069 59.8942 26.2069C58.6814 26.2069 57.5634 26.4264 56.5401 26.847C55.5169 27.2677 54.6452 27.8895 53.9251 28.6759C53.205 29.4805 52.6365 30.4498 52.2197 31.602C51.8217 32.7542 51.6133 34.0526 51.6133 35.5157C51.6133 36.9788 51.8217 38.2772 52.2197 39.4294C52.6176 40.5815 53.1861 41.5508 53.9062 42.3555C54.6262 43.1419 55.4979 43.7637 56.5022 44.1843C57.5065 44.605 58.6246 44.8061 59.8563 44.8061C61.069 44.8061 62.187 44.5867 63.1913 44.1661C64.1957 43.7454 65.0673 43.1236 65.8064 42.3189C66.5264 41.5143 67.0949 40.545 67.4929 39.3928C67.8908 38.2406 68.0992 36.9422 68.0992 35.4791C68.0992 34.016 67.8908 32.7176 67.4929 31.5654Z" fill="white"/>
<path d="M247.002 5.92541C246.755 5.68766 246.414 5.4682 245.978 5.26703C245.543 5.06586 245.012 4.97442 244.425 4.97442C244.14 4.97442 243.837 4.99271 243.553 5.04757C243.269 5.10244 243.003 5.19388 242.757 5.30361C242.511 5.43163 242.283 5.55964 242.075 5.70595C241.866 5.85226 241.696 5.99856 241.544 6.14487V5.24874H237.849V18.7638H241.544V11.4485C241.544 10.4609 241.715 9.72938 242.075 9.23559C242.435 8.7601 243.041 8.50406 243.913 8.50406C244.33 8.50406 244.709 8.57722 245.069 8.74181C245.429 8.9064 245.751 9.12586 246.054 9.3819L247.002 5.92541ZM234.552 18.7638V5.24874H230.857V12.6372C230.857 13.6431 230.686 14.4112 230.326 14.9233C229.966 15.4353 229.341 15.6914 228.469 15.6914C227.597 15.6914 226.991 15.4353 226.631 14.9415C226.271 14.4295 226.1 13.6431 226.1 12.5458V5.24874H222.405V12.875C222.405 14.905 222.841 16.4412 223.732 17.4836C224.622 18.5261 225.892 19.0564 227.579 19.0564C228.318 19.0564 228.962 18.9467 229.53 18.7089C230.099 18.4712 230.535 18.1969 230.857 17.8677V18.7821H234.552V18.7638ZM212.04 10.4792C212.078 10.1317 212.154 9.82082 212.267 9.52821C212.381 9.23559 212.552 8.97956 212.741 8.7601C212.931 8.54064 213.177 8.37604 213.423 8.24803C213.689 8.12001 213.992 8.06514 214.333 8.06514C214.75 8.06514 215.11 8.1383 215.413 8.26631C215.716 8.39433 215.963 8.57722 216.171 8.81496C216.379 9.03442 216.531 9.30875 216.645 9.60136C216.758 9.89397 216.815 10.1866 216.853 10.4975H212.04V10.4792ZM220.018 9.29046C219.752 8.43091 219.373 7.68109 218.862 7.041C218.369 6.40091 217.744 5.88883 217.005 5.52307C216.285 5.1573 215.451 4.95613 214.503 4.95613C213.613 4.95613 212.798 5.12073 212.04 5.4682C211.282 5.81568 210.619 6.29118 210.069 6.91298C209.52 7.53478 209.065 8.2846 208.762 9.14415C208.44 10.0037 208.288 10.9547 208.288 11.9971C208.288 12.7287 208.364 13.4053 208.497 14.0088C208.629 14.6124 208.819 15.161 209.065 15.6548C209.311 16.1486 209.615 16.5875 209.956 16.9898C210.316 17.3922 210.714 17.7397 211.187 18.0323C211.642 18.3249 212.192 18.5809 212.798 18.7455C213.404 18.9284 214.106 19.0198 214.882 19.0198C215.356 19.0198 215.83 18.965 216.304 18.8735C216.777 18.7821 217.232 18.6358 217.687 18.4529C218.123 18.27 218.54 18.0323 218.919 17.7579C219.298 17.4836 219.639 17.1727 219.904 16.8252L217.289 14.7221C217.156 14.8684 217.005 14.9964 216.834 15.1061C216.664 15.2342 216.474 15.3256 216.247 15.417C216.019 15.5085 215.811 15.5633 215.584 15.5999C215.375 15.6365 215.129 15.6548 214.882 15.6548C214.541 15.6548 214.219 15.5999 213.878 15.5085C213.556 15.417 213.253 15.2707 212.988 15.0696C212.722 14.8684 212.495 14.6124 212.324 14.2832C212.154 13.954 212.04 13.5699 212.002 13.1127H220.378C220.397 12.9847 220.416 12.8201 220.416 12.6372C220.435 12.4543 220.435 12.2349 220.435 11.9788C220.416 11.0461 220.283 10.15 220.018 9.29046ZM206.355 18.7638V11.1559C206.355 10.2049 206.242 9.34532 206.052 8.57722C205.844 7.80911 205.54 7.16902 205.105 6.63865C204.688 6.10829 204.138 5.68766 203.494 5.41334C202.85 5.12073 202.073 4.97442 201.182 4.97442C200.841 4.97442 200.5 4.99271 200.178 5.04757C199.856 5.10244 199.533 5.19388 199.249 5.30361C198.965 5.43163 198.7 5.55964 198.472 5.70595C198.245 5.85226 198.055 5.99856 197.904 6.14487V5.24874H194.209V18.7638H197.904V11.3753C197.904 10.7901 197.961 10.2963 198.074 9.91226C198.188 9.52821 198.34 9.21731 198.548 8.97956C198.757 8.74181 199.003 8.57721 199.287 8.48577C199.59 8.37604 199.931 8.33947 200.31 8.33947C201.182 8.33947 201.788 8.5955 202.148 9.10758C202.509 9.61965 202.679 10.406 202.679 11.4668V18.7821H206.355V18.7638ZM183.692 10.4792C183.73 10.1317 183.805 9.82082 183.919 9.52821C184.033 9.23559 184.203 8.97956 184.393 8.7601C184.582 8.54064 184.81 8.37604 185.075 8.24803C185.34 8.12001 185.644 8.06514 185.985 8.06514C186.402 8.06514 186.762 8.1383 187.065 8.26631C187.368 8.41262 187.614 8.57722 187.823 8.81496C188.031 9.03442 188.183 9.30875 188.296 9.60136C188.41 9.89397 188.467 10.1866 188.505 10.4975H183.692V10.4792ZM191.669 9.29046C191.404 8.43091 191.025 7.68109 190.514 7.041C190.002 6.40091 189.396 5.88883 188.657 5.52307C187.936 5.1573 187.103 4.95613 186.155 4.95613C185.265 4.95613 184.45 5.12073 183.692 5.4682C182.934 5.81568 182.271 6.29118 181.721 6.91298C181.153 7.53478 180.717 8.2846 180.395 9.14415C180.072 10.0037 179.921 10.9547 179.921 11.9971C179.921 12.7287 179.997 13.4053 180.129 14.0088C180.262 14.6124 180.47 15.161 180.698 15.6548C180.944 16.1486 181.247 16.5875 181.607 16.9898C181.967 17.3922 182.365 17.7397 182.839 18.0323C183.294 18.3249 183.843 18.5809 184.45 18.7455C185.056 18.9284 185.757 19.0198 186.534 19.0198C187.008 19.0198 187.482 18.965 187.955 18.8735C188.429 18.7821 188.884 18.6358 189.32 18.4529C189.756 18.27 190.172 18.0323 190.551 17.7579C190.93 17.4836 191.272 17.1727 191.537 16.8252L188.922 14.7587C188.789 14.905 188.638 15.033 188.467 15.1427C188.296 15.2707 188.107 15.3622 187.88 15.4536C187.652 15.5451 187.444 15.5999 187.216 15.6365C187.008 15.6731 186.762 15.6914 186.515 15.6914C186.174 15.6914 185.852 15.6365 185.511 15.5451C185.189 15.4536 184.886 15.3073 184.62 15.1061C184.355 14.905 184.128 14.6489 183.957 14.3197C183.787 13.9906 183.673 13.6065 183.635 13.1493H192.011C192.029 13.0213 192.048 12.8567 192.048 12.6738C192.067 12.4909 192.067 12.2715 192.067 12.0154C192.086 11.0461 191.935 10.15 191.669 9.29046ZM179.314 5.92541C179.068 5.68766 178.727 5.4682 178.291 5.26703C177.855 5.06586 177.325 4.97442 176.718 4.97442C176.415 4.97442 176.131 4.99271 175.847 5.04757C175.562 5.10244 175.297 5.19388 175.051 5.30361C174.805 5.43163 174.577 5.55964 174.369 5.70595C174.16 5.85226 173.99 5.99856 173.838 6.14487V5.24874H170.162V18.7638H173.857V11.4485C173.857 10.4609 174.028 9.72938 174.388 9.23559C174.748 8.7601 175.354 8.50406 176.226 8.50406C176.643 8.50406 177.022 8.57722 177.382 8.74181C177.742 8.9064 178.064 9.12586 178.367 9.3819L179.314 5.92541ZM163.757 14.8318C163.378 15.417 162.829 15.7097 162.127 15.7097C161.862 15.7097 161.597 15.6914 161.35 15.6365C161.104 15.5816 160.877 15.5085 160.668 15.417C160.46 15.3073 160.27 15.1976 160.119 15.0696C159.948 14.9415 159.797 14.7769 159.645 14.5758V9.45505C159.948 9.05271 160.289 8.7601 160.649 8.5955C160.99 8.41262 161.426 8.33947 161.919 8.33947C162.715 8.33947 163.302 8.66866 163.719 9.34532C164.117 10.022 164.326 10.9913 164.326 12.2715C164.307 13.387 164.136 14.2466 163.757 14.8318ZM167.623 8.92469C167.338 8.01028 166.941 7.26046 166.448 6.67523C165.955 6.09001 165.368 5.65109 164.723 5.37676C164.06 5.10244 163.359 4.95613 162.62 4.95613C162.052 4.95613 161.521 5.04757 161.009 5.24874C160.517 5.44991 160.062 5.72424 159.664 6.09001V5.24874H155.969V23.7199L159.664 21.946V17.9957C159.986 18.2883 160.422 18.5443 160.934 18.7455C161.445 18.9467 162.014 19.0564 162.62 19.0564C163.492 19.0564 164.25 18.8918 164.932 18.5443C165.614 18.2152 166.183 17.7397 166.637 17.1179C167.092 16.5143 167.452 15.7828 167.699 14.9415C167.945 14.1003 168.059 13.1676 168.059 12.1617C168.059 10.9181 167.907 9.82082 167.623 8.92469ZM145.452 10.4792C145.49 10.1317 145.566 9.82082 145.679 9.52821C145.793 9.23559 145.945 8.97956 146.153 8.7601C146.343 8.54064 146.57 8.37604 146.854 8.24803C147.119 8.12001 147.423 8.06514 147.764 8.06514C148.181 8.06514 148.541 8.1383 148.844 8.26631C149.147 8.41262 149.393 8.57722 149.602 8.81496C149.81 9.03442 149.962 9.30875 150.076 9.60136C150.189 9.89397 150.246 10.1866 150.284 10.4975H145.452V10.4792ZM153.43 9.29046C153.164 8.43091 152.785 7.68109 152.274 7.041C151.762 6.40091 151.156 5.88883 150.417 5.52307C149.678 5.1573 148.844 4.95613 147.915 4.95613C147.025 4.95613 146.21 5.12073 145.452 5.4682C144.694 5.81568 144.031 6.29118 143.481 6.91298C142.913 7.53478 142.477 8.2846 142.174 9.14415C141.852 10.0037 141.7 10.9547 141.7 11.9971C141.7 12.7287 141.776 13.4053 141.908 14.0088C142.041 14.6124 142.231 15.161 142.477 15.6548C142.723 16.1486 143.026 16.5875 143.368 16.9898C143.728 17.3922 144.125 17.7397 144.599 18.0323C145.054 18.3249 145.604 18.5809 146.21 18.7455C146.816 18.9284 147.517 19.0198 148.294 19.0198C148.768 19.0198 149.242 18.965 149.716 18.8735C150.189 18.7821 150.644 18.6358 151.099 18.4529C151.535 18.27 151.952 18.0323 152.331 17.7579C152.71 17.4836 153.051 17.1727 153.316 16.8252L150.701 14.7221C150.568 14.8684 150.417 14.9964 150.246 15.1061C150.076 15.2342 149.886 15.3256 149.659 15.417C149.431 15.5085 149.223 15.5633 148.995 15.5999C148.787 15.6365 148.541 15.6548 148.294 15.6548C147.953 15.6548 147.612 15.5999 147.29 15.5085C146.949 15.417 146.665 15.2707 146.399 15.0696C146.115 14.9233 145.907 14.6672 145.717 14.338C145.547 14.0088 145.433 13.6248 145.395 13.1676H153.771C153.79 13.0396 153.809 12.875 153.809 12.6921C153.809 12.5092 153.828 12.2897 153.828 12.0337C153.828 11.0461 153.695 10.15 153.43 9.29046ZM141.34 5.92541C141.094 5.68766 140.752 5.4682 140.317 5.26703C139.881 5.06586 139.35 4.97442 138.744 4.97442C138.441 4.97442 138.156 4.99271 137.872 5.04757C137.588 5.10244 137.323 5.19388 137.076 5.30361C136.83 5.43163 136.603 5.55964 136.394 5.70595C136.186 5.85226 136.015 5.99856 135.864 6.14487V5.24874H132.168V18.7638H135.864V11.4485C135.864 10.4609 136.034 9.72938 136.394 9.23559C136.754 8.7601 137.361 8.50406 138.232 8.50406C138.649 8.50406 139.028 8.57722 139.388 8.74181C139.748 8.9064 140.07 9.12586 140.374 9.3819L141.34 5.92541ZM130.084 14.6124C129.667 14.9781 129.288 15.2524 128.966 15.3988C128.644 15.5633 128.322 15.6365 128 15.6365C127.791 15.6365 127.583 15.6182 127.412 15.5633C127.242 15.5085 127.109 15.4353 126.995 15.3073C126.882 15.1793 126.787 15.0147 126.73 14.8135C126.673 14.6306 126.654 14.3563 126.654 14.0271V8.5955H130.008V5.24874H126.654V0L122.959 1.77397V5.24874H120.609V8.5955H122.959V14.9781C122.959 15.5816 123.054 16.112 123.224 16.6058C123.395 17.0996 123.66 17.5385 123.982 17.886C124.304 18.2517 124.702 18.5261 125.157 18.7272C125.612 18.9284 126.124 19.0381 126.692 19.0381C127.261 19.0381 127.81 18.965 128.322 18.8004C128.833 18.6358 129.25 18.4346 129.553 18.2152L130.084 14.6124ZM119.226 18.7638V11.1559C119.226 10.2049 119.131 9.34532 118.923 8.57722C118.714 7.80911 118.411 7.16902 117.975 6.63865C117.539 6.10829 117.009 5.68766 116.365 5.41334C115.72 5.12073 114.943 4.97442 114.053 4.97442C113.712 4.97442 113.371 4.99271 113.049 5.04757C112.726 5.10244 112.404 5.19388 112.12 5.30361C111.817 5.43163 111.57 5.55964 111.343 5.70595C111.116 5.85226 110.926 5.99856 110.775 6.14487V5.24874H107.079V18.7638H110.775V11.3753C110.775 10.7901 110.831 10.2963 110.945 9.91226C111.059 9.52821 111.21 9.21731 111.419 8.97956C111.627 8.74181 111.874 8.57721 112.177 8.48577C112.48 8.37604 112.802 8.33947 113.2 8.33947C114.072 8.33947 114.697 8.5955 115.038 9.10758C115.398 9.61965 115.569 10.406 115.569 11.4668V18.7821H119.226V18.7638ZM104.521 15.2342H94.895V10.8815H102.399V7.38847H94.895V4.27946H104.123V0.74982H91.143V18.7821H104.502V15.2342H104.521ZM80.4745 0.74982L75.794 8.2846L71.1325 0.74982H66.831L73.8991 11.7228V18.7821H77.6321V11.6496L84.7002 0.74982H80.4745ZM66.0351 15.2342H56.4088V10.8815H63.9128V7.38847H56.4088V4.27946H65.6372V0.74982H52.6758V18.7821H66.0351V15.2342Z" fill="white"/>
<path d="M192.54 29.6261V26.4988H191.972L191.081 28.5105L190.171 26.4988H189.622V29.6261H190.152V27.6326L191.062 29.7175L192.01 27.6326V29.6261H192.54ZM189.11 27.0108V26.4805H186.723V27.0108H187.651V29.6078H188.201V27.0108H189.11Z" fill="white"/>
<path d="M60.9753 83.6856H51.7659L51.5195 84.9841H55.3852L53.2818 96.4692H54.7599L56.8633 84.9841H60.71L60.9753 83.6856ZM67.7591 88.9527C67.6075 88.4772 67.3802 88.0748 67.077 87.7456C66.7738 87.4164 66.3948 87.1421 65.959 86.9592C65.5231 86.7764 65.0115 86.6849 64.4241 86.6849C63.7798 86.6849 63.1544 86.8312 62.586 87.1238C62.0175 87.4164 61.5248 87.8188 61.1079 88.3492C60.691 88.8795 60.3689 89.5013 60.1225 90.2511C59.8762 90.9827 59.7625 91.8239 59.7625 92.7201C59.7625 93.3601 59.8573 93.9271 60.0468 94.4209C60.2362 94.9147 60.5015 95.3353 60.8237 95.6645C61.1648 95.9937 61.5627 96.2497 62.0175 96.4326C62.4912 96.6155 62.9839 96.6886 63.5334 96.6886C64.1209 96.6886 64.6704 96.6155 65.182 96.4692C65.6937 96.3229 66.2243 96.0851 66.7738 95.7742L66.2432 94.7318C65.8263 94.9695 65.4284 95.1524 65.0304 95.2987C64.6325 95.4267 64.1967 95.4999 63.7419 95.4999C63.2681 95.4999 62.8702 95.4267 62.5291 95.2621C62.188 95.1158 61.9038 94.8781 61.6953 94.5855C61.468 94.2929 61.3164 93.9454 61.2406 93.5247C61.1458 93.1224 61.1269 92.6469 61.1648 92.1348H67.7781C67.8349 91.9337 67.8918 91.6959 67.9297 91.4033C67.9676 91.129 67.9865 90.8181 67.9865 90.5072C68.0055 89.9402 67.9297 89.4099 67.7591 88.9527ZM61.3543 91.0375C61.449 90.5803 61.5816 90.1414 61.7522 89.7574C61.9227 89.3733 62.1312 89.0258 62.3965 88.7515C62.6428 88.4772 62.9271 88.2577 63.2681 88.0931C63.5903 87.9468 63.9503 87.8554 64.3672 87.8554C64.803 87.8554 65.1631 87.9285 65.4663 88.0931C65.7695 88.2394 66.0158 88.4589 66.2053 88.7515C66.3948 89.0258 66.5085 89.3733 66.5843 89.7574C66.6601 90.1414 66.6601 90.5803 66.6222 91.0375H61.3543ZM77.5939 87.9834C77.4233 87.8005 77.2338 87.6359 77.0254 87.4713C76.817 87.3067 76.5896 87.1787 76.3432 87.0507C76.0969 86.9227 75.8126 86.8312 75.4905 86.7764C75.1684 86.7032 74.8083 86.6666 74.4104 86.6666C73.785 86.6666 73.1787 86.7946 72.6102 87.069C72.0417 87.3433 71.5301 87.7273 71.0942 88.2394C70.6584 88.7515 70.2984 89.3733 70.052 90.0865C69.7867 90.8181 69.6541 91.641 69.6541 92.5555C69.6541 93.1956 69.7488 93.7808 69.9194 94.2929C70.1089 94.8049 70.3552 95.2256 70.6963 95.573C71.0374 95.9205 71.4353 96.1948 71.9091 96.3777C72.3828 96.5606 72.9134 96.652 73.5008 96.652C74.0882 96.652 74.5999 96.5606 75.0736 96.3594C75.5473 96.1583 76.0211 95.8656 76.4948 95.445L75.7937 94.5672C75.4905 94.8415 75.1684 95.061 74.8273 95.2256C74.4862 95.3901 74.1072 95.4816 73.6714 95.4816C72.8376 95.4816 72.2123 95.2256 71.7764 94.7318C71.3406 94.238 71.1132 93.5065 71.1132 92.5372C71.1132 91.8605 71.189 91.2387 71.3406 90.6718C71.4922 90.1048 71.7196 89.611 72.0038 89.1904C72.288 88.7698 72.6291 88.4406 73.0271 88.2211C73.425 87.9834 73.8798 87.8737 74.3535 87.8737C74.8652 87.8737 75.301 87.9834 75.661 88.1846C76.0211 88.3857 76.3432 88.6418 76.6085 88.9527L77.5939 87.9834ZM86.7275 88.3492C86.5759 87.9834 86.3674 87.6725 86.1021 87.4164C85.8368 87.1787 85.5147 86.9775 85.1357 86.8678C84.7567 86.7398 84.3588 86.6849 83.9419 86.6849C83.3545 86.6849 82.8429 86.7946 82.407 87.0324C81.9712 87.2701 81.5732 87.581 81.2322 87.9651L82.1228 83.1553L80.55 83.9234L78.2382 96.4692H79.6594L80.6637 91.0558C80.7584 90.5437 80.8911 90.0865 81.0806 89.6842C81.2701 89.2819 81.4974 88.9527 81.7438 88.6783C81.9901 88.404 82.2744 88.2028 82.5965 88.0565C82.8997 87.9102 83.2408 87.8371 83.5819 87.8371C84.2451 87.8371 84.7378 88.02 85.041 88.3674C85.3442 88.7149 85.4958 89.2453 85.4958 89.9219C85.4958 90.0682 85.4958 90.2511 85.4768 90.434C85.4579 90.6169 85.4389 90.7998 85.401 90.9644L84.3778 96.4692H85.799L86.8601 90.7998C86.898 90.6169 86.917 90.4157 86.9359 90.2146C86.9549 90.0134 86.9549 89.8305 86.9549 89.6476C86.9549 89.1538 86.8791 88.7149 86.7275 88.3492ZM96.4485 87.4713C95.9179 86.941 95.1789 86.6666 94.2314 86.6666C93.644 86.6666 93.1324 86.7764 92.6965 87.0141C92.2607 87.2519 91.8628 87.5628 91.5027 87.9468L91.6733 86.8678H90.271L88.5087 96.4509H89.9299L90.9342 91.0375C91.029 90.5255 91.1616 90.0682 91.3511 89.6659C91.5406 89.2636 91.768 88.9344 92.0144 88.6601C92.2607 88.3857 92.5449 88.1846 92.8671 88.0382C93.1703 87.8919 93.5113 87.8188 93.8524 87.8188C94.5157 87.8188 95.0084 88.0017 95.3115 88.3492C95.6147 88.6966 95.7663 89.227 95.7663 89.9037C95.7663 90.05 95.7663 90.2328 95.7474 90.4157C95.7284 90.5986 95.7095 90.7815 95.6716 90.9461L94.6483 96.4509H96.0695L97.1307 90.7815C97.1686 90.5986 97.1875 90.3974 97.2065 90.1963C97.2254 89.9951 97.2254 89.8122 97.2254 89.6293C97.2633 88.7332 96.9791 88.0017 96.4485 87.4713ZM99.4425 94.2929C99.632 94.8049 99.8973 95.2256 100.238 95.573C100.579 95.9205 100.996 96.1948 101.489 96.396C101.982 96.5789 102.512 96.6886 103.119 96.6886C103.744 96.6886 104.35 96.5606 104.919 96.2863C105.487 96.012 105.999 95.6279 106.435 95.1158C106.871 94.6037 107.231 93.9819 107.477 93.2687C107.742 92.5372 107.875 91.7142 107.875 90.7998C107.875 90.178 107.78 89.5928 107.591 89.099C107.401 88.5869 107.136 88.1663 106.795 87.8188C106.454 87.4713 106.037 87.197 105.544 86.9958C105.052 86.8129 104.502 86.7032 103.915 86.7032C103.289 86.7032 102.683 86.8312 102.114 87.1055C101.546 87.3799 101.034 87.7639 100.598 88.276C100.163 88.7881 99.8025 89.4099 99.5562 90.1231C99.2909 90.8546 99.1583 91.6776 99.1583 92.592C99.1583 93.2138 99.253 93.7808 99.4425 94.2929ZM100.845 90.6718C100.996 90.1048 101.224 89.611 101.508 89.1904C101.792 88.7698 102.133 88.4589 102.512 88.2211C102.91 87.9834 103.327 87.8737 103.801 87.8737C104.218 87.8737 104.597 87.9468 104.919 88.0748C105.26 88.2028 105.544 88.4223 105.772 88.6783C105.999 88.9527 106.17 89.2636 106.283 89.6293C106.397 89.9951 106.435 90.3792 106.435 90.7998C106.435 91.4765 106.359 92.0983 106.207 92.6835C106.056 93.2504 105.828 93.7442 105.544 94.1648C105.26 94.5855 104.919 94.8964 104.54 95.1341C104.142 95.3719 103.725 95.4816 103.251 95.4816C102.872 95.4816 102.512 95.4267 102.171 95.2987C101.83 95.189 101.546 94.9878 101.318 94.7318C101.072 94.4757 100.902 94.1648 100.788 93.7991C100.674 93.4333 100.598 93.0127 100.598 92.5372C100.598 91.8788 100.693 91.2387 100.845 90.6718ZM113.124 83.1553L111.551 83.9234L109.239 96.4692H110.661L113.124 83.1553ZM114.166 94.2929C114.356 94.8049 114.621 95.2256 114.962 95.573C115.303 95.9205 115.72 96.1948 116.213 96.396C116.705 96.5789 117.236 96.6886 117.842 96.6886C118.468 96.6886 119.074 96.5606 119.643 96.2863C120.211 96.012 120.723 95.6279 121.158 95.1158C121.594 94.6037 121.954 93.9819 122.201 93.2687C122.466 92.5372 122.599 91.7142 122.599 90.7998C122.599 90.178 122.504 89.5928 122.314 89.099C122.125 88.5869 121.86 88.1663 121.519 87.8188C121.177 87.4713 120.761 87.197 120.268 86.9958C119.775 86.8129 119.226 86.7032 118.638 86.7032C118.013 86.7032 117.407 86.8312 116.838 87.1055C116.27 87.3799 115.758 87.7639 115.322 88.276C114.886 88.7881 114.526 89.4099 114.28 90.1231C114.015 90.8546 113.882 91.6776 113.882 92.592C113.882 93.2138 113.977 93.7808 114.166 94.2929ZM115.549 90.6718C115.701 90.1048 115.928 89.611 116.213 89.1904C116.497 88.7698 116.838 88.4589 117.217 88.2211C117.615 87.9834 118.032 87.8737 118.506 87.8737C118.922 87.8737 119.301 87.9468 119.624 88.0748C119.965 88.2028 120.249 88.4223 120.476 88.6783C120.704 88.9527 120.874 89.2636 120.988 89.6293C121.102 89.9951 121.14 90.3792 121.14 90.7998C121.14 91.4765 121.064 92.0983 120.912 92.6835C120.761 93.2504 120.533 93.7442 120.249 94.1648C119.965 94.5855 119.624 94.8964 119.245 95.1341C118.847 95.3719 118.43 95.4816 117.956 95.4816C117.577 95.4816 117.217 95.4267 116.876 95.2987C116.535 95.189 116.251 94.9878 116.023 94.7318C115.777 94.4757 115.606 94.1648 115.493 93.7991C115.379 93.4333 115.303 93.0127 115.303 92.5372C115.322 91.8788 115.398 91.2387 115.549 90.6718ZM128.852 96.3777C129.269 96.1765 129.705 95.8839 130.159 95.4633L130.084 95.8474C129.989 96.4509 129.837 96.9264 129.629 97.2921C129.42 97.6579 129.174 97.9505 128.89 98.1883C128.587 98.426 128.17 98.5906 127.62 98.7186C127.071 98.8466 126.275 98.9015 125.271 98.9015L125.441 99.9988C126.597 99.9805 127.525 99.8708 128.227 99.6696C128.928 99.4867 129.458 99.249 129.837 98.9564C130.216 98.682 130.557 98.298 130.842 97.8225C131.126 97.347 131.372 96.6338 131.562 95.7011L133.172 86.8861H131.77L131.524 88.1663C131.372 87.9468 131.183 87.7456 131.012 87.581C130.823 87.3982 130.633 87.2519 130.406 87.1055C130.178 86.9775 129.932 86.8678 129.667 86.7946C129.401 86.7215 129.098 86.6849 128.757 86.6849C128.132 86.6849 127.563 86.8129 127.014 87.0873C126.464 87.3616 125.991 87.7639 125.593 88.2943C125.195 88.8246 124.873 89.4647 124.626 90.2328C124.38 91.001 124.266 91.8605 124.266 92.8481C124.266 93.4882 124.342 94.0551 124.513 94.5489C124.683 95.0244 124.91 95.4267 125.214 95.7559C125.498 96.0668 125.839 96.3046 126.237 96.4692C126.616 96.6338 127.033 96.7069 127.488 96.7069C127.961 96.6703 128.435 96.5789 128.852 96.3777ZM125.877 90.6169C126.028 90.0134 126.237 89.5196 126.502 89.099C126.768 88.6966 127.09 88.3857 127.469 88.1663C127.829 87.9468 128.246 87.8554 128.681 87.8554C129.004 87.8554 129.307 87.8919 129.572 87.9834C129.837 88.0748 130.065 88.1846 130.273 88.3309C130.482 88.4772 130.671 88.6418 130.823 88.8612C130.974 89.0624 131.126 89.2819 131.24 89.5196L130.368 94.2197C130.159 94.4209 129.951 94.6038 129.743 94.7501C129.534 94.8964 129.345 95.0427 129.155 95.1341C128.966 95.2438 128.757 95.317 128.549 95.3719C128.34 95.4267 128.113 95.4633 127.886 95.4633C127.165 95.4633 126.597 95.2256 126.218 94.7501C125.839 94.2746 125.649 93.5796 125.649 92.6835C125.649 91.9154 125.725 91.2204 125.877 90.6169ZM143.538 86.8861H142.003L137.815 94.8232L136.526 86.8861H135.067L136.849 96.3594L134.878 99.8525H136.299L143.538 86.8861ZM159.341 85.7339C159.133 85.3864 158.906 85.0755 158.659 84.7829C158.413 84.5086 158.11 84.2709 157.788 84.0697C157.465 83.8685 157.087 83.7222 156.689 83.6308C156.291 83.521 155.817 83.4845 155.324 83.4845C154.718 83.4845 154.13 83.5759 153.562 83.7771C152.993 83.9782 152.482 84.2526 152.008 84.6C151.534 84.9475 151.099 85.3682 150.701 85.8619C150.303 86.3557 149.962 86.8861 149.696 87.4713C149.412 88.0565 149.204 88.6783 149.052 89.355C148.9 90.0134 148.825 90.7083 148.825 91.4216C148.825 92.2629 148.938 93.031 149.166 93.6711C149.393 94.3294 149.715 94.8781 150.132 95.317C150.549 95.7559 151.042 96.1034 151.629 96.3228C152.217 96.5606 152.842 96.6703 153.543 96.6703C153.998 96.6703 154.415 96.6155 154.832 96.524C155.248 96.4143 155.627 96.2863 155.987 96.1034C156.347 95.9205 156.689 95.701 157.03 95.445C157.352 95.189 157.655 94.9147 157.958 94.6038L157.068 93.6893C156.499 94.2746 155.95 94.7135 155.419 94.9695C154.888 95.2256 154.282 95.3719 153.657 95.3719C153.164 95.3719 152.709 95.2804 152.311 95.0975C151.894 94.9147 151.553 94.6586 151.25 94.3111C150.966 93.9637 150.738 93.543 150.568 93.0492C150.397 92.5555 150.322 91.9885 150.322 91.3484C150.322 90.5437 150.435 89.7756 150.644 89.0441C150.852 88.3126 151.174 87.6176 151.591 86.9592C152.008 86.3009 152.539 85.7705 153.164 85.3864C153.789 84.9841 154.453 84.7829 155.173 84.7829C155.552 84.7829 155.893 84.8195 156.177 84.8927C156.461 84.9658 156.726 85.0755 156.954 85.2218C157.181 85.3682 157.39 85.551 157.579 85.7705C157.769 85.99 157.939 86.2277 158.11 86.502L159.341 85.7339ZM167.926 88.02C167.793 87.7091 167.584 87.4713 167.319 87.2701C167.054 87.069 166.732 86.9227 166.334 86.8312C165.955 86.7398 165.5 86.6849 165.007 86.6849C164.42 86.6849 163.832 86.7581 163.264 86.9227C162.696 87.069 162.165 87.2701 161.691 87.4896L162.127 88.5686C162.563 88.3492 163.018 88.1663 163.454 88.0382C163.889 87.9102 164.382 87.8371 164.894 87.8371C165.5 87.8371 165.955 87.9651 166.258 88.2028C166.542 88.4406 166.694 88.8064 166.694 89.3001C166.694 89.3916 166.694 89.5013 166.675 89.6293C166.675 89.7573 166.656 89.8671 166.637 89.9585L166.429 91.0924C166.106 90.9461 165.746 90.7998 165.292 90.7083C164.856 90.5986 164.382 90.5437 163.889 90.5437C163.302 90.5437 162.752 90.6169 162.241 90.7815C161.729 90.9278 161.293 91.1656 160.914 91.4765C160.535 91.7874 160.232 92.1531 160.024 92.6103C159.796 93.0675 159.702 93.5796 159.702 94.1831C159.702 94.6403 159.777 95.0244 159.929 95.3353C160.081 95.6645 160.289 95.9205 160.573 96.1217C160.838 96.3229 161.161 96.4692 161.502 96.5606C161.862 96.652 162.222 96.7069 162.62 96.7069C163.226 96.7069 163.814 96.5789 164.325 96.3228C164.856 96.0668 165.292 95.7559 165.652 95.4084L165.462 96.5057H166.864L168.077 89.9037C168.096 89.7756 168.115 89.6476 168.134 89.5196C168.153 89.3916 168.153 89.2636 168.153 89.1538C168.153 88.6783 168.077 88.3126 167.926 88.02ZM165.879 94.11C165.69 94.3111 165.5 94.494 165.273 94.6769C165.064 94.8598 164.818 95.0061 164.572 95.1341C164.325 95.2621 164.06 95.3719 163.795 95.445C163.529 95.5182 163.245 95.5547 162.961 95.5547C162.354 95.5547 161.9 95.4084 161.578 95.1341C161.255 94.8598 161.104 94.4574 161.104 93.9088C161.104 93.543 161.161 93.2321 161.274 92.9578C161.388 92.6835 161.559 92.4274 161.786 92.2446C162.013 92.0434 162.279 91.8971 162.601 91.7873C162.923 91.6776 163.283 91.6228 163.681 91.6228C164.249 91.6228 164.742 91.6776 165.159 91.7691C165.557 91.8788 165.917 92.0068 166.239 92.1714L165.879 94.11ZM175.562 86.8861H173.099L173.781 83.1553L172.208 83.9234L171.678 86.8861H170.446L170.218 88.0382H171.45L170.294 94.4209C170.237 94.7135 170.218 94.9329 170.218 95.0793C170.218 95.6279 170.389 96.0302 170.73 96.3046C171.071 96.5606 171.602 96.6886 172.284 96.6886C172.511 96.6886 172.739 96.6703 172.947 96.6338C173.156 96.5972 173.402 96.5423 173.648 96.4509L173.989 95.2438C173.8 95.3353 173.591 95.3901 173.383 95.4267C173.175 95.4633 172.909 95.4816 172.568 95.4816C172.246 95.4816 172.019 95.4267 171.886 95.2987C171.753 95.189 171.678 95.0244 171.678 94.8232C171.678 94.7501 171.678 94.6586 171.696 94.5306C171.696 94.4209 171.715 94.3111 171.734 94.2014L172.852 88.0382H175.316L175.562 86.8861ZM184.165 88.9527C184.014 88.4772 183.786 88.0748 183.483 87.7456C183.18 87.4164 182.801 87.1421 182.365 86.9592C181.929 86.7764 181.418 86.6849 180.83 86.6849C180.186 86.6849 179.56 86.8312 179.011 87.1238C178.442 87.4164 177.95 87.8188 177.533 88.3492C177.116 88.8795 176.775 89.5013 176.548 90.2511C176.301 90.9827 176.187 91.8239 176.187 92.7201C176.187 93.3601 176.282 93.9271 176.472 94.4209C176.661 94.9147 176.927 95.3353 177.249 95.6645C177.59 95.9937 177.988 96.2497 178.442 96.4326C178.897 96.6155 179.409 96.6886 179.958 96.6886C180.546 96.6886 181.095 96.6155 181.607 96.4692C182.119 96.3229 182.649 96.0851 183.199 95.7742L182.668 94.7318C182.251 94.9695 181.853 95.1524 181.455 95.2987C181.057 95.4267 180.622 95.4999 180.167 95.4999C179.693 95.4999 179.295 95.4267 178.954 95.2621C178.632 95.0975 178.348 94.8781 178.12 94.5855C177.893 94.2929 177.741 93.9454 177.666 93.5247C177.571 93.1224 177.552 92.6469 177.59 92.1348H184.203C184.26 91.9337 184.317 91.6959 184.355 91.4033C184.393 91.129 184.412 90.8181 184.412 90.5072C184.412 89.9402 184.336 89.4099 184.165 88.9527ZM177.76 91.0375C177.855 90.5803 177.988 90.1414 178.158 89.7574C178.329 89.3733 178.537 89.0258 178.802 88.7515C179.049 88.4772 179.333 88.2577 179.674 88.0931C179.996 87.9468 180.356 87.8554 180.773 87.8554C181.209 87.8554 181.569 87.9285 181.872 88.0931C182.175 88.2394 182.422 88.4589 182.611 88.7515C182.801 89.0258 182.915 89.3733 182.99 89.7574C183.066 90.1414 183.066 90.5803 183.028 91.0375H177.76ZM190.57 96.3777C190.987 96.1765 191.423 95.8839 191.878 95.4633L191.802 95.8474C191.707 96.4509 191.555 96.9264 191.347 97.2921C191.139 97.6579 190.892 97.9505 190.608 98.1883C190.305 98.426 189.888 98.5906 189.338 98.7186C188.789 98.8466 187.993 98.9015 186.989 98.9015L187.159 99.9988C188.315 99.9805 189.244 99.8708 189.945 99.6696C190.646 99.4867 191.176 99.249 191.555 98.9564C191.934 98.682 192.276 98.298 192.56 97.8225C192.844 97.347 193.09 96.6338 193.28 95.7011L194.891 86.8861H193.488L193.242 88.1663C193.09 87.9468 192.901 87.7456 192.73 87.581C192.541 87.3982 192.332 87.2519 192.124 87.1055C191.897 86.9775 191.65 86.8678 191.385 86.7946C191.12 86.7215 190.816 86.6849 190.475 86.6849C189.869 86.6849 189.281 86.8129 188.732 87.0873C188.182 87.3616 187.709 87.7639 187.311 88.2943C186.913 88.8246 186.591 89.4647 186.344 90.2328C186.098 91.001 185.984 91.8605 185.984 92.8481C185.984 93.4882 186.06 94.0551 186.231 94.5489C186.401 95.0244 186.629 95.4267 186.932 95.7559C187.216 96.0668 187.557 96.3046 187.955 96.4692C188.334 96.6338 188.751 96.7069 189.206 96.7069C189.698 96.6703 190.153 96.5789 190.57 96.3777ZM187.614 90.6169C187.766 90.0134 187.974 89.5196 188.239 89.099C188.505 88.6966 188.827 88.3857 189.206 88.1663C189.566 87.9468 189.983 87.8554 190.418 87.8554C190.741 87.8554 191.044 87.8919 191.29 87.9834C191.555 88.0748 191.783 88.1846 191.991 88.3309C192.2 88.4772 192.389 88.6418 192.541 88.8612C192.692 89.0624 192.844 89.2819 192.958 89.5196L192.086 94.2197C191.878 94.4209 191.669 94.6038 191.461 94.7501C191.252 94.8964 191.063 95.0427 190.854 95.1341C190.665 95.2438 190.456 95.317 190.248 95.3719C190.039 95.4267 189.812 95.4633 189.585 95.4633C188.865 95.4633 188.296 95.2256 187.917 94.7501C187.538 94.2746 187.349 93.5796 187.349 92.6835C187.387 91.9154 187.462 91.2204 187.614 90.6169ZM196.558 94.2929C196.748 94.8049 197.013 95.2256 197.354 95.573C197.695 95.9205 198.112 96.1948 198.605 96.396C199.097 96.5789 199.628 96.6886 200.234 96.6886C200.86 96.6886 201.466 96.5606 202.034 96.2863C202.603 96.012 203.115 95.6279 203.55 95.1158C203.986 94.6037 204.346 93.9819 204.593 93.2687C204.858 92.5372 204.991 91.7142 204.991 90.7998C204.991 90.178 204.896 89.5928 204.706 89.099C204.517 88.5869 204.252 88.1663 203.91 87.8188C203.569 87.4713 203.152 87.197 202.66 86.9958C202.167 86.8129 201.618 86.7032 201.03 86.7032C200.405 86.7032 199.798 86.8312 199.23 87.1055C198.661 87.3799 198.15 87.7639 197.714 88.276C197.278 88.7881 196.918 89.4099 196.672 90.1231C196.406 90.8546 196.274 91.6776 196.274 92.592C196.274 93.2138 196.369 93.7808 196.558 94.2929ZM197.96 90.6718C198.112 90.1048 198.339 89.611 198.624 89.1904C198.908 88.7698 199.249 88.4589 199.628 88.2211C200.026 87.9834 200.443 87.8737 200.916 87.8737C201.333 87.8737 201.712 87.9468 202.053 88.0748C202.394 88.2028 202.679 88.4223 202.906 88.6783C203.133 88.9344 203.304 89.2636 203.399 89.6293C203.512 89.9951 203.55 90.3792 203.55 90.7998C203.55 91.4765 203.475 92.0983 203.323 92.6835C203.171 93.2504 202.944 93.7442 202.66 94.1648C202.376 94.5855 202.034 94.8964 201.655 95.1341C201.258 95.3719 200.841 95.4816 200.367 95.4816C199.988 95.4816 199.628 95.4267 199.306 95.2987C198.965 95.189 198.68 94.9878 198.453 94.7318C198.207 94.4757 198.036 94.1648 197.922 93.7991C197.809 93.4333 197.733 93.0127 197.733 92.5372C197.733 91.8788 197.809 91.2387 197.96 90.6718ZM213.461 86.9227C213.309 86.8495 213.101 86.7946 212.873 86.7398C212.627 86.7032 212.324 86.6666 211.964 86.6666C211.452 86.6666 210.96 86.7946 210.486 87.0507C210.012 87.3067 209.614 87.6176 209.311 88.0017L209.5 86.8678H208.098L206.336 96.4509H207.757L208.78 90.9095C208.875 90.3792 209.008 89.9402 209.197 89.5562C209.368 89.1721 209.595 88.8612 209.842 88.6235C210.088 88.3857 210.372 88.2028 210.675 88.0931C210.979 87.9834 211.301 87.9285 211.642 87.9285C211.945 87.9285 212.21 87.9468 212.4 87.9834C212.589 88.02 212.779 88.0931 212.93 88.1663L213.461 86.9227ZM223.39 86.8861H221.855L217.668 94.8232L216.379 86.8861H214.92L216.701 96.3594L214.731 99.8525H216.152L223.39 86.8861Z" fill="white"/>
<path d="M58.7392 75.3656L58.9665 74.0123H52.1069C52.2016 73.6648 52.3153 73.3356 52.4859 73.0064C52.6564 72.6773 52.9027 72.3481 53.2059 72.0189C53.5091 71.6897 53.9071 71.3605 54.3808 71.013C54.8545 70.6656 55.442 70.3364 56.1241 69.9706C56.9011 69.5682 57.5453 69.2025 58.057 68.855C58.5686 68.5075 58.9665 68.1601 59.2697 67.8126C59.5729 67.4651 59.7624 67.0993 59.8951 66.7336C60.0088 66.3678 60.0656 65.9472 60.0656 65.4717C60.0656 64.9779 59.9709 64.5207 59.7814 64.1366C59.5919 63.7526 59.3266 63.4234 58.9855 63.1673C58.6444 62.9113 58.2465 62.7101 57.7727 62.5638C57.299 62.4358 56.7874 62.3627 56.2378 62.3627C55.4609 62.3627 54.7408 62.4724 54.0587 62.7101C53.3765 62.9296 52.7512 63.2588 52.1637 63.6977L52.8459 64.7401C53.3196 64.3744 53.8313 64.1 54.3808 63.9172C54.9303 63.7343 55.4988 63.6428 56.1431 63.6428C56.9011 63.6428 57.5074 63.8074 57.9622 64.1549C58.417 64.5024 58.6444 64.9779 58.6444 65.5997C58.6444 65.9472 58.6065 66.2398 58.5118 66.4958C58.417 66.7519 58.2465 67.0262 58.0001 67.2822C57.7538 67.5383 57.4127 67.8126 56.9769 68.0869C56.541 68.3612 55.9725 68.6904 55.2714 69.0562C54.5513 69.4402 53.9071 69.8243 53.3386 70.2266C52.7701 70.629 52.2774 71.0679 51.8605 71.5617C51.4436 72.0555 51.0836 72.6041 50.7994 73.2259C50.5151 73.8477 50.2877 74.561 50.1172 75.3656H58.7392ZM71.4352 65.2522C71.2268 64.6121 70.9426 64.0818 70.5636 63.6611C70.1846 63.2405 69.7298 62.9113 69.1992 62.7101C68.6686 62.4907 68.0622 62.3992 67.399 62.3992C66.5463 62.3992 65.7694 62.6004 65.0682 63.021C64.3671 63.4417 63.7607 64.0086 63.2491 64.7584C62.7564 65.49 62.3585 66.3495 62.0742 67.3371C61.79 68.3246 61.6574 69.3671 61.6574 70.501C61.6574 71.3422 61.7521 72.092 61.9605 72.7138C62.169 73.3539 62.4532 73.8843 62.8322 74.3049C63.2112 74.7256 63.666 75.0547 64.1966 75.2559C64.7272 75.4754 65.3335 75.5851 65.9968 75.5851C66.8495 75.5851 67.6264 75.3656 68.3275 74.945C69.0287 74.5244 69.635 73.9392 70.1467 73.2076C70.6583 72.4761 71.0373 71.6165 71.3215 70.629C71.6058 69.6414 71.7384 68.599 71.7384 67.4651C71.7384 66.6238 71.6437 65.8923 71.4352 65.2522ZM69.9572 70.3181C69.7487 71.1593 69.4456 71.8726 69.0666 72.4578C68.6876 73.043 68.2517 73.5002 67.7401 73.8111C67.2285 74.122 66.6789 74.2866 66.1105 74.2866C65.5988 74.2866 65.144 74.1952 64.784 74.0306C64.405 73.866 64.1018 73.61 63.8555 73.2991C63.6091 72.9882 63.4196 72.5675 63.306 72.092C63.1923 71.6165 63.1165 71.0679 63.1165 70.4644C63.1165 69.4219 63.2302 68.471 63.4386 67.6297C63.647 66.7884 63.9502 66.0752 64.3292 65.49C64.7082 64.9047 65.144 64.4475 65.6557 64.1366C66.1673 63.8257 66.6979 63.6611 67.2853 63.6611C67.7969 63.6611 68.2328 63.7526 68.6118 63.9172C68.9908 64.0818 69.294 64.3378 69.5403 64.6487C69.7866 64.9779 69.9761 65.3802 70.0898 65.8557C70.2035 66.3312 70.2793 66.8799 70.2793 67.4834C70.2793 68.5258 70.1656 69.4768 69.9572 70.3181ZM80.8341 75.3656L81.0615 74.0123H74.1829C74.2776 73.6648 74.3913 73.3356 74.5619 73.0064C74.7324 72.6773 74.9788 72.3481 75.282 72.0189C75.5851 71.6897 75.9831 71.3605 76.4568 71.013C76.9305 70.6656 77.518 70.3364 78.2002 69.9706C78.9771 69.5682 79.6214 69.2025 80.133 68.855C80.6446 68.5075 81.0426 68.1601 81.3458 67.8126C81.6489 67.4651 81.8384 67.0993 81.9711 66.7336C82.0848 66.3678 82.1416 65.9472 82.1416 65.4717C82.1416 64.9779 82.0469 64.5207 81.8574 64.1366C81.6679 63.7526 81.4026 63.4234 81.0615 63.1673C80.7204 62.9113 80.3225 62.7101 79.8488 62.5638C79.375 62.4358 78.8634 62.3627 78.3139 62.3627C77.5369 62.3627 76.8169 62.4724 76.1347 62.7101C75.4525 62.9296 74.8272 63.2588 74.2397 63.6977L74.9219 64.7401C75.3957 64.3744 75.9073 64.1 76.4568 63.9172C77.0063 63.7343 77.5748 63.6428 78.2191 63.6428C78.9771 63.6428 79.5835 63.8074 80.0383 64.1549C80.493 64.5024 80.7204 64.9779 80.7204 65.5997C80.7204 65.9472 80.6825 66.2398 80.5878 66.4958C80.493 66.7519 80.3225 67.0262 80.0761 67.2822C79.8298 67.5383 79.4887 67.8126 79.0529 68.0869C78.617 68.3612 78.0486 68.6904 77.3474 69.0562C76.6274 69.4402 75.9831 69.8243 75.4146 70.2266C74.8461 70.629 74.3534 71.0679 73.9366 71.5617C73.5197 72.0555 73.1596 72.6041 72.8754 73.2259C72.5911 73.8477 72.3638 74.561 72.1932 75.3656H80.8341ZM91.9006 75.3656L92.1279 74.0123H85.2683C85.363 73.6648 85.4767 73.3356 85.6473 73.0064C85.8178 72.6773 86.0642 72.3481 86.3673 72.0189C86.6705 71.6897 87.0685 71.3605 87.5422 71.013C88.0159 70.6656 88.6034 70.3364 89.2855 69.9706C90.0625 69.5682 90.7067 69.2025 91.2184 68.855C91.73 68.5075 92.1279 68.1601 92.4311 67.8126C92.7343 67.4651 92.9238 67.0993 93.0565 66.7336C93.1702 66.3678 93.227 65.9472 93.227 65.4717C93.227 64.9779 93.1323 64.5207 92.9428 64.1366C92.7533 63.7526 92.488 63.4234 92.1469 63.1673C91.8058 62.9113 91.4079 62.7101 90.9341 62.5638C90.4604 62.4358 89.9488 62.3627 89.3992 62.3627C88.6223 62.3627 87.9022 62.4724 87.2201 62.7101C86.5379 62.9296 85.9126 63.2588 85.3251 63.6977L86.0073 64.7401C86.481 64.3744 86.9927 64.1 87.5422 63.9172C88.0917 63.7343 88.6602 63.6428 89.3045 63.6428C90.0625 63.6428 90.6688 63.8074 91.1236 64.1549C91.5784 64.5024 91.8058 64.9779 91.8058 65.5997C91.8058 65.9472 91.7679 66.2398 91.6732 66.4958C91.5784 66.7519 91.4079 67.0262 91.1615 67.2822C90.9152 67.5383 90.5741 67.8126 90.1383 68.0869C89.7024 68.3612 89.1339 68.6904 88.4328 69.0562C87.7127 69.4402 87.0685 69.8243 86.5 70.2266C85.9315 70.629 85.4388 71.0679 85.0219 71.5617C84.605 72.0555 84.245 72.6041 83.9608 73.2259C83.6765 73.8477 83.4491 74.561 83.2786 75.3656H91.9006ZM110.244 64.6304C110.035 64.2829 109.808 63.972 109.561 63.6794C109.315 63.4051 109.012 63.1673 108.69 62.9662C108.368 62.765 107.989 62.6187 107.591 62.5273C107.193 62.4175 106.719 62.3809 106.226 62.3809C105.62 62.3809 105.032 62.4724 104.464 62.6736C103.896 62.8747 103.384 63.1491 102.91 63.4965C102.436 63.844 102.001 64.2646 101.603 64.7584C101.205 65.2522 100.864 65.7826 100.598 66.3678C100.314 66.953 100.106 67.5748 99.954 68.2515C99.8024 68.9099 99.7267 69.6048 99.7267 70.3181C99.7267 71.1593 99.8403 71.9274 100.068 72.5675C100.295 73.2259 100.617 73.7746 101.034 74.2135C101.451 74.6524 101.944 74.9999 102.531 75.2193C103.119 75.4571 103.744 75.5668 104.445 75.5668C104.9 75.5668 105.317 75.512 105.734 75.4205C106.15 75.3108 106.529 75.1828 106.89 74.9999C107.25 74.817 107.591 74.5975 107.932 74.3415C108.254 74.0855 108.557 73.8111 108.86 73.5002L107.97 72.5858C107.401 73.171 106.852 73.61 106.321 73.866C105.79 74.122 105.184 74.2683 104.559 74.2683C104.066 74.2683 103.611 74.1769 103.213 73.994C102.796 73.8111 102.455 73.5551 102.152 73.2076C101.868 72.8601 101.641 72.4395 101.47 71.9457C101.299 71.4519 101.224 70.885 101.224 70.2449C101.224 69.4402 101.337 68.6721 101.546 67.9406C101.754 67.2091 102.076 66.5141 102.493 65.8557C102.91 65.1973 103.441 64.667 104.066 64.2829C104.691 63.8806 105.355 63.6794 106.075 63.6794C106.454 63.6794 106.795 63.716 107.079 63.7891C107.363 63.8623 107.629 63.972 107.856 64.1183C108.083 64.2646 108.292 64.4475 108.481 64.6487C108.671 64.8682 108.841 65.1059 109.012 65.3802L110.244 64.6304ZM118.733 65.7826H112.138L111.93 66.9347H116.819L110.338 74.3598L110.149 75.3656H117.179L117.387 74.2135H112.082L118.562 66.7701L118.733 65.7826ZM127.431 67.8491C127.279 67.3737 127.052 66.9713 126.748 66.6421C126.445 66.3129 126.066 66.0386 125.63 65.8557C125.195 65.6728 124.683 65.5814 124.096 65.5814C123.451 65.5814 122.826 65.7277 122.257 66.0203C121.689 66.3129 121.196 66.7153 120.779 67.2456C120.363 67.776 120.04 68.3978 119.794 69.1476C119.548 69.8792 119.434 70.7204 119.434 71.6165C119.434 72.2566 119.529 72.8236 119.718 73.3174C119.908 73.8111 120.173 74.2318 120.495 74.561C120.836 74.8902 121.234 75.1462 121.689 75.3291C122.163 75.5119 122.655 75.5851 123.205 75.5851C123.792 75.5851 124.342 75.5119 124.854 75.3656C125.365 75.2193 125.896 74.9816 126.445 74.6707L125.915 73.6283C125.498 73.866 125.1 74.0489 124.702 74.1952C124.304 74.3232 123.868 74.3964 123.413 74.3964C122.94 74.3964 122.542 74.3232 122.201 74.1586C121.86 74.0123 121.575 73.7746 121.367 73.4819C121.139 73.1893 120.988 72.8419 120.912 72.4212C120.817 72.0189 120.798 71.5434 120.836 71.0313H127.45C127.506 70.8301 127.563 70.5924 127.601 70.2998C127.639 70.0255 127.658 69.7146 127.658 69.4037C127.677 68.8367 127.582 68.3246 127.431 67.8491ZM121.026 69.934C121.12 69.4768 121.253 69.0379 121.424 68.6538C121.594 68.2698 121.803 67.9223 122.068 67.648C122.314 67.3737 122.599 67.1542 122.94 66.9896C123.262 66.8433 123.622 66.7519 124.039 66.7519C124.475 66.7519 124.835 66.825 125.138 66.9896C125.441 67.1359 125.687 67.3554 125.877 67.648C126.066 67.9223 126.18 68.2698 126.256 68.6538C126.332 69.0379 126.332 69.4768 126.294 69.934H121.026ZM137.265 66.8799C137.095 66.697 136.905 66.5324 136.697 66.3678C136.488 66.2032 136.261 66.0752 136.015 65.9472C135.768 65.8374 135.484 65.7277 135.162 65.6728C134.84 65.5997 134.48 65.5631 134.082 65.5631C133.457 65.5631 132.85 65.6911 132.282 65.9655C131.713 66.2398 131.202 66.6238 130.766 67.1359C130.33 67.648 129.97 68.2698 129.724 68.983C129.458 69.7146 129.326 70.5375 129.326 71.4519C129.326 72.092 129.42 72.6773 129.591 73.1893C129.78 73.7014 130.027 74.122 130.368 74.4695C130.709 74.817 131.107 75.0913 131.581 75.2742C132.054 75.4571 132.585 75.5485 133.172 75.5485C133.76 75.5485 134.271 75.4571 134.745 75.2559C135.219 75.0547 135.693 74.7621 136.166 74.3415L135.446 73.4454C135.143 73.7197 134.821 73.9392 134.48 74.1038C134.139 74.2683 133.76 74.3598 133.324 74.3598C132.49 74.3598 131.865 74.1038 131.429 73.61C130.993 73.1162 130.766 72.3846 130.766 71.4154C130.766 70.7387 130.842 70.1169 130.993 69.55C131.145 68.983 131.372 68.4892 131.656 68.0686C131.941 67.648 132.282 67.3188 132.68 67.0993C133.078 66.8616 133.532 66.7519 134.006 66.7519C134.518 66.7519 134.954 66.8616 135.314 67.0627C135.674 67.2639 135.996 67.52 136.261 67.8309L137.265 66.8799ZM146.399 67.2456C146.247 66.8799 146.039 66.569 145.774 66.3129C145.508 66.0752 145.186 65.874 144.807 65.7643C144.428 65.6363 144.03 65.5814 143.613 65.5814C143.026 65.5814 142.514 65.6911 142.079 65.9289C141.643 66.1666 141.245 66.4775 140.904 66.8616L141.794 62.0518L140.221 62.8199L137.91 75.3656H139.331L140.335 69.9523C140.43 69.4402 140.563 68.983 140.752 68.5807C140.942 68.1783 141.169 67.8492 141.415 67.5748C141.662 67.3005 141.946 67.0993 142.268 66.953C142.571 66.8067 142.912 66.7336 143.253 66.7336C143.917 66.7336 144.409 66.9164 144.712 67.2639C145.016 67.6114 145.167 68.1418 145.167 68.8184C145.167 68.9647 145.167 69.1476 145.148 69.3305C145.129 69.5134 145.11 69.6963 145.073 69.8609L144.049 75.3656H145.47L146.532 69.6963C146.57 69.5134 146.588 69.3122 146.607 69.111C146.626 68.9099 146.626 68.727 146.626 68.5441C146.607 68.0686 146.551 67.6297 146.399 67.2456ZM163.415 64.3927C163.207 63.9903 162.923 63.6428 162.563 63.3868C162.203 63.1125 161.748 62.9113 161.236 62.7833C160.725 62.6553 160.156 62.5821 159.512 62.5821H155.116L152.766 75.3656H154.244L155.248 69.934H158.356L160.308 75.3656H161.881L159.891 69.8243C160.365 69.7328 160.819 69.6048 161.274 69.4219C161.729 69.2391 162.146 68.983 162.506 68.6721C162.866 68.3612 163.15 67.9772 163.378 67.5017C163.605 67.0445 163.719 66.4775 163.719 65.8192C163.719 65.2888 163.624 64.795 163.415 64.3927ZM161.388 67.9223C160.838 68.4161 160.024 68.6538 158.981 68.6538H155.476L156.347 63.8989H159.322C160.327 63.8989 161.066 64.0635 161.521 64.411C161.975 64.7584 162.203 65.2522 162.203 65.9106C162.222 66.7519 161.937 67.4285 161.388 67.9223ZM172.739 67.8491C172.587 67.3737 172.36 66.9713 172.056 66.6421C171.753 66.3129 171.374 66.0386 170.938 65.8557C170.503 65.6728 169.991 65.5814 169.404 65.5814C168.759 65.5814 168.134 65.7277 167.565 66.0203C166.997 66.3129 166.504 66.7153 166.087 67.2456C165.67 67.776 165.348 68.3978 165.102 69.1476C164.856 69.8792 164.742 70.7204 164.742 71.6165C164.742 72.2566 164.837 72.8236 165.026 73.3174C165.216 73.8111 165.481 74.2318 165.803 74.561C166.144 74.8902 166.542 75.1462 166.997 75.3291C167.471 75.5119 167.963 75.5851 168.513 75.5851C169.1 75.5851 169.65 75.5119 170.161 75.3656C170.673 75.2193 171.204 74.9816 171.753 74.6707L171.223 73.6283C170.806 73.866 170.408 74.0489 170.01 74.1952C169.612 74.3232 169.176 74.3964 168.721 74.3964C168.248 74.3964 167.85 74.3232 167.509 74.1586C167.167 74.0123 166.883 73.7746 166.675 73.4819C166.447 73.1893 166.296 72.8419 166.22 72.4212C166.125 72.0189 166.106 71.5434 166.144 71.0313H172.758C172.814 70.8301 172.871 70.5924 172.909 70.2998C172.947 70.0255 172.966 69.7146 172.966 69.4037C172.966 68.8367 172.89 68.3246 172.739 67.8491ZM166.334 69.934C166.428 69.4768 166.561 69.0379 166.732 68.6538C166.902 68.2698 167.111 67.9223 167.376 67.648C167.622 67.3737 167.907 67.1542 168.248 66.9896C168.57 66.8433 168.93 66.7519 169.347 66.7519C169.782 66.7519 170.143 66.825 170.446 66.9896C170.749 67.1359 170.995 67.3554 171.185 67.648C171.374 67.9223 171.488 68.2698 171.564 68.6538C171.64 69.0379 171.64 69.4768 171.602 69.934H166.334ZM182.895 67.7211C182.725 67.2456 182.498 66.8433 182.194 66.5324C181.91 66.2215 181.569 65.9837 181.171 65.8192C180.773 65.6546 180.356 65.5814 179.92 65.5814C179.466 65.5814 179.03 65.6546 178.632 65.8192C178.215 65.9837 177.741 66.2946 177.23 66.7884L177.4 65.7826H175.998L173.572 78.8953L175.145 78.1272L175.884 74.1038C176.036 74.3232 176.225 74.5244 176.396 74.689C176.585 74.8719 176.775 75.0182 177.002 75.1645C177.23 75.2925 177.476 75.4022 177.741 75.4754C178.007 75.5485 178.31 75.5851 178.651 75.5851C179.257 75.5851 179.845 75.4571 180.394 75.1828C180.944 74.9084 181.417 74.5061 181.815 73.9757C182.213 73.4454 182.535 72.8053 182.782 72.0372C183.028 71.2691 183.142 70.4095 183.142 69.4219C183.142 68.7636 183.066 68.1966 182.895 67.7211ZM181.493 71.6348C181.342 72.2383 181.133 72.7321 180.868 73.1528C180.603 73.5551 180.28 73.866 179.901 74.0672C179.522 74.2683 179.125 74.3781 178.689 74.3781C178.367 74.3781 178.063 74.3415 177.798 74.2501C177.533 74.1769 177.305 74.0489 177.097 73.9026C176.888 73.7563 176.699 73.5917 176.547 73.3722C176.396 73.171 176.244 72.9516 176.131 72.7138L177.002 68.0137C177.211 67.8126 177.419 67.6297 177.628 67.4651C177.817 67.3005 178.025 67.1725 178.215 67.0627C178.404 66.953 178.613 66.8799 178.821 66.825C179.03 66.7701 179.257 66.7336 179.485 66.7336C180.205 66.7336 180.773 66.9713 181.152 67.4651C181.531 67.9406 181.721 68.6355 181.721 69.55C181.721 70.3546 181.645 71.0313 181.493 71.6348ZM185.814 74.7987C186.363 75.3291 187.102 75.5851 188.031 75.5851C188.618 75.5851 189.149 75.4754 189.585 75.2376C190.02 74.9999 190.418 74.689 190.759 74.3049L190.589 75.3839H191.991L193.753 65.8009H192.332L191.328 71.2142C191.233 71.7263 191.101 72.1835 190.911 72.5858C190.722 72.9882 190.513 73.3174 190.248 73.5917C190.001 73.866 189.717 74.0672 189.395 74.2135C189.073 74.3598 188.751 74.4329 188.41 74.4329C187.746 74.4329 187.254 74.2501 186.951 73.9026C186.647 73.5551 186.496 73.0247 186.496 72.3481C186.496 72.2018 186.496 72.0189 186.515 71.836C186.534 71.6531 186.553 71.4702 186.591 71.3056L187.595 65.7826H186.174L185.113 71.4519C185.075 71.6348 185.037 71.836 185.018 72.0372C184.999 72.2383 184.999 72.4212 184.999 72.6041C184.999 73.5368 185.264 74.2683 185.814 74.7987ZM203.512 67.7211C203.342 67.2456 203.114 66.8433 202.811 66.5324C202.527 66.2215 202.186 65.9837 201.788 65.8192C201.39 65.6546 200.973 65.5814 200.537 65.5814C200.045 65.5814 199.571 65.6728 199.135 65.874C198.699 66.0752 198.263 66.3678 197.828 66.7884L198.718 62.07L197.145 62.8382L194.834 75.3839H196.236L196.482 74.1038C196.634 74.3232 196.823 74.5244 196.994 74.689C197.183 74.8719 197.392 75.0182 197.6 75.1645C197.828 75.2925 198.074 75.4022 198.339 75.4754C198.604 75.5485 198.908 75.5851 199.249 75.5851C199.855 75.5851 200.443 75.4571 200.992 75.1828C201.542 74.9084 202.015 74.5061 202.413 73.9757C202.811 73.4454 203.133 72.8053 203.38 72.0372C203.626 71.2691 203.74 70.4095 203.74 69.4219C203.759 68.7636 203.683 68.1966 203.512 67.7211ZM202.11 71.6348C201.959 72.2383 201.75 72.7321 201.485 73.1528C201.22 73.5551 200.897 73.866 200.518 74.0672C200.158 74.2683 199.741 74.3781 199.306 74.3781C198.983 74.3781 198.68 74.3415 198.415 74.2501C198.15 74.1769 197.922 74.0489 197.714 73.9026C197.505 73.7563 197.316 73.5917 197.164 73.3722C196.994 73.171 196.861 72.9516 196.747 72.7138L197.619 68.0137C197.828 67.8126 198.036 67.6297 198.244 67.4651C198.453 67.3005 198.642 67.1725 198.832 67.0627C199.021 66.953 199.23 66.8799 199.438 66.825C199.647 66.7701 199.874 66.7336 200.101 66.7336C200.822 66.7336 201.39 66.9713 201.769 67.4651C202.148 67.9406 202.338 68.6355 202.338 69.55C202.338 70.3546 202.262 71.0313 202.11 71.6348ZM209.046 62.0518L207.473 62.8199L205.161 75.3656H206.582L209.046 62.0518ZM213.404 62.7101C213.347 62.5821 213.29 62.4907 213.196 62.3992C213.101 62.3078 213.006 62.2346 212.873 62.1981C212.76 62.1432 212.627 62.1249 212.494 62.1249C212.343 62.1249 212.21 62.1432 212.077 62.1981C211.945 62.2529 211.831 62.3261 211.736 62.3992C211.642 62.4907 211.566 62.6004 211.509 62.7101C211.452 62.8382 211.433 62.9662 211.433 63.0942C211.433 63.2222 211.452 63.3502 211.509 63.46C211.566 63.5697 211.642 63.6794 211.736 63.7709C211.831 63.8623 211.945 63.9355 212.077 63.972C212.21 64.0269 212.343 64.0452 212.494 64.0452C212.627 64.0452 212.741 64.0269 212.873 63.972C212.987 63.9172 213.101 63.844 213.196 63.7709C213.29 63.6794 213.366 63.588 213.404 63.46C213.461 63.3502 213.48 63.2222 213.48 63.0942C213.499 62.9662 213.461 62.8382 213.404 62.7101ZM212.76 65.7826H211.338L209.576 75.3656H210.997L212.76 65.7826ZM222.159 66.8799C221.988 66.697 221.799 66.5324 221.59 66.3678C221.382 66.2032 221.154 66.0752 220.908 65.9472C220.662 65.8374 220.377 65.7277 220.055 65.6728C219.733 65.5997 219.373 65.5631 218.975 65.5631C218.35 65.5631 217.743 65.6911 217.175 65.9655C216.606 66.2398 216.095 66.6238 215.659 67.1359C215.223 67.648 214.882 68.2698 214.617 68.983C214.351 69.6963 214.219 70.5375 214.219 71.4519C214.219 72.092 214.314 72.6773 214.484 73.1893C214.674 73.7014 214.92 74.122 215.261 74.4695C215.602 74.817 216 75.0913 216.474 75.2742C216.947 75.4571 217.478 75.5485 218.066 75.5485C218.653 75.5485 219.165 75.4571 219.638 75.2559C220.112 75.0547 220.586 74.7621 221.06 74.3415L220.339 73.4454C220.036 73.7197 219.714 73.9392 219.373 74.1038C219.032 74.2683 218.653 74.3598 218.217 74.3598C217.383 74.3598 216.758 74.1038 216.303 73.61C215.867 73.1162 215.64 72.3846 215.64 71.4154C215.64 70.7387 215.716 70.1169 215.886 69.55C216.038 68.983 216.265 68.4892 216.55 68.0686C216.834 67.648 217.175 67.3188 217.573 67.0993C217.971 66.8616 218.426 66.7519 218.899 66.7519C219.411 66.7519 219.847 66.8616 220.226 67.0627C220.586 67.2639 220.908 67.52 221.173 67.8309L222.159 66.8799Z" fill="white"/>
</svg>
